<?xml version="1.0" encoding="UTF-8" standalone="no"?><svg xmlns="http://www.w3.org/2000/svg" xmlns:xlink="http://www.w3.org/1999/xlink" contentStyleType="text/css" height="2493px" preserveAspectRatio="none" style="width:1777px;height:2493px;background:#FFFFFF;" version="1.1" viewBox="0 0 1777 2493" width="1777px" zoomAndPan="magnify"><defs/><g><!--class Swagger--><g id="elem_Swagger"><rect codeLine="1" fill="#F1F1F1" height="311.8125" id="Swagger" rx="2.5" ry="2.5" style="stroke:#7FFFD4;stroke-width:2.0;" width="283" x="544.5" y="7"/><ellipse cx="652.25" cy="23" fill="#ADD1B2" rx="11" ry="11" style="stroke:#181818;stroke-width:1.0;"/><path d="M654.7231,29.1431 Q654.1421,29.4419 653.5029,29.5913 Q652.8638,29.7407 652.1582,29.7407 Q649.6514,29.7407 648.3315,28.0889 Q647.0117,26.437 647.0117,23.3159 Q647.0117,20.1865 648.3315,18.5347 Q649.6514,16.8828 652.1582,16.8828 Q652.8638,16.8828 653.5112,17.0322 Q654.1587,17.1816 654.7231,17.4805 L654.7231,20.2031 Q654.0923,19.6221 653.4988,19.3523 Q652.9053,19.0825 652.2744,19.0825 Q650.9297,19.0825 650.2449,20.1492 Q649.5601,21.2158 649.5601,23.3159 Q649.5601,25.4077 650.2449,26.4744 Q650.9297,27.541 652.2744,27.541 Q652.9053,27.541 653.4988,27.2712 Q654.0923,27.0015 654.7231,26.4204 Z " fill="#000000"/><text fill="#000000" font-family="sans-serif" font-size="14" lengthAdjust="spacing" textLength="59" x="672.75" y="28.291">Swagger</text><line style="stroke:#7FFFD4;stroke-width:2.0;" x1="545.5" x2="826.5" y1="39" y2="39"/><text fill="#000000" font-family="sans-serif" font-size="14" lengthAdjust="spacing" textLength="110" x="550.5" y="56.5352">swagger : string</text><text fill="#000000" font-family="sans-serif" font-size="14" lengthAdjust="spacing" textLength="66" x="550.5" y="73.0234">info : Info</text><text fill="#000000" font-family="sans-serif" font-size="14" lengthAdjust="spacing" textLength="82" x="550.5" y="89.5117">host : string</text><text fill="#000000" font-family="sans-serif" font-size="14" lengthAdjust="spacing" textLength="114" x="550.5" y="106">basePath : string</text><text fill="#000000" font-family="sans-serif" font-size="14" lengthAdjust="spacing" textLength="168" x="550.5" y="122.4883">schemes : array of string</text><text fill="#000000" font-family="sans-serif" font-size="14" lengthAdjust="spacing" textLength="178" x="550.5" y="138.9766">consumes : array of string</text><text fill="#000000" font-family="sans-serif" font-size="14" lengthAdjust="spacing" textLength="173" x="550.5" y="155.4648">produces : array of string</text><text fill="#000000" font-family="sans-serif" font-size="14" lengthAdjust="spacing" textLength="87" x="550.5" y="171.9531">paths : Paths</text><text fill="#000000" font-family="sans-serif" font-size="14" lengthAdjust="spacing" textLength="159" x="550.5" y="188.4414">definitions : Definitions</text><text fill="#000000" font-family="sans-serif" font-size="14" lengthAdjust="spacing" textLength="245" x="550.5" y="204.9297">parameters : Parameters Definitions</text><text fill="#000000" font-family="sans-serif" font-size="14" lengthAdjust="spacing" textLength="233" x="550.5" y="221.418">responses : Responses Definitions</text><text fill="#000000" font-family="sans-serif" font-size="14" lengthAdjust="spacing" textLength="271" x="550.5" y="237.9063">securityDefinitions : Security Definitions</text><text fill="#000000" font-family="sans-serif" font-size="14" lengthAdjust="spacing" textLength="268" x="550.5" y="254.3945">security : array of Security Requirement</text><text fill="#000000" font-family="sans-serif" font-size="14" lengthAdjust="spacing" textLength="124" x="550.5" y="270.8828">tags : array of Tag</text><text fill="#000000" font-family="sans-serif" font-size="14" lengthAdjust="spacing" textLength="268" x="550.5" y="287.3711">externalDocs : External Documentation</text><text fill="#000000" font-family="sans-serif" font-size="14" lengthAdjust="spacing" textLength="64" x="550.5" y="303.8594">^x- : Any</text><line style="stroke:#7FFFD4;stroke-width:2.0;" x1="545.5" x2="826.5" y1="310.8125" y2="310.8125"/></g><!--class Info--><g id="elem_Info"><rect codeLine="29" fill="#F1F1F1" height="163.418" id="Info" rx="2.5" ry="2.5" style="stroke:#0000FF;stroke-width:2.0;" width="167" x="1518.5" y="381"/><ellipse cx="1584.25" cy="397" fill="#ADD1B2" rx="11" ry="11" style="stroke:#181818;stroke-width:1.0;"/><path d="M1586.7231,403.1431 Q1586.1421,403.4419 1585.5029,403.5913 Q1584.8638,403.7407 1584.1582,403.7407 Q1581.6514,403.7407 1580.3315,402.0889 Q1579.0117,400.437 1579.0117,397.3159 Q1579.0117,394.1865 1580.3315,392.5347 Q1581.6514,390.8828 1584.1582,390.8828 Q1584.8638,390.8828 1585.5112,391.0322 Q1586.1587,391.1816 1586.7231,391.4805 L1586.7231,394.2031 Q1586.0923,393.6221 1585.4988,393.3523 Q1584.9053,393.0825 1584.2744,393.0825 Q1582.9297,393.0825 1582.2449,394.1492 Q1581.5601,395.2158 1581.5601,397.3159 Q1581.5601,399.4077 1582.2449,400.4744 Q1582.9297,401.541 1584.2744,401.541 Q1584.9053,401.541 1585.4988,401.2712 Q1586.0923,401.0015 1586.7231,400.4204 Z " fill="#000000"/><text fill="#000000" font-family="sans-serif" font-size="14" lengthAdjust="spacing" textLength="27" x="1604.75" y="402.291">Info</text><line style="stroke:#0000FF;stroke-width:2.0;" x1="1519.5" x2="1684.5" y1="413" y2="413"/><text fill="#000000" font-family="sans-serif" font-size="14" lengthAdjust="spacing" textLength="78" x="1524.5" y="430.5352">title : string</text><text fill="#000000" font-family="sans-serif" font-size="14" lengthAdjust="spacing" textLength="129" x="1524.5" y="447.0234">description : string</text><text fill="#000000" font-family="sans-serif" font-size="14" lengthAdjust="spacing" textLength="155" x="1524.5" y="463.5117">termsOfService : string</text><text fill="#000000" font-family="sans-serif" font-size="14" lengthAdjust="spacing" textLength="115" x="1524.5" y="480">contact : Contact</text><text fill="#000000" font-family="sans-serif" font-size="14" lengthAdjust="spacing" textLength="109" x="1524.5" y="496.4883">license : License</text><text fill="#000000" font-family="sans-serif" font-size="14" lengthAdjust="spacing" textLength="102" x="1524.5" y="512.9766">version : string</text><text fill="#000000" font-family="sans-serif" font-size="14" lengthAdjust="spacing" textLength="64" x="1524.5" y="529.4648">^x- : Any</text><line style="stroke:#0000FF;stroke-width:2.0;" x1="1519.5" x2="1684.5" y1="536.418" y2="536.418"/></g><!--class Paths--><g id="elem_Paths"><rect codeLine="54" fill="#F1F1F1" height="80.9766" id="Paths" rx="2.5" ry="2.5" style="stroke:#6495ED;stroke-width:2.0;" width="126" x="865" y="421.5"/><ellipse cx="905.65" cy="437.5" fill="#ADD1B2" rx="11" ry="11" style="stroke:#181818;stroke-width:1.0;"/><path d="M908.1231,443.6431 Q907.5421,443.9419 906.9029,444.0913 Q906.2638,444.2407 905.5582,444.2407 Q903.0514,444.2407 901.7315,442.5889 Q900.4117,440.937 900.4117,437.8159 Q900.4117,434.6865 901.7315,433.0347 Q903.0514,431.3828 905.5582,431.3828 Q906.2638,431.3828 906.9112,431.5322 Q907.5587,431.6816 908.1231,431.9805 L908.1231,434.7031 Q907.4923,434.1221 906.8988,433.8523 Q906.3053,433.5825 905.6744,433.5825 Q904.3297,433.5825 903.6449,434.6492 Q902.9601,435.7158 902.9601,437.8159 Q902.9601,439.9077 903.6449,440.9744 Q904.3297,442.041 905.6744,442.041 Q906.3053,442.041 906.8988,441.7712 Q907.4923,441.5015 908.1231,440.9204 Z " fill="#000000"/><text fill="#000000" font-family="sans-serif" font-size="14" lengthAdjust="spacing" textLength="37" x="925.35" y="442.791">Paths</text><line style="stroke:#6495ED;stroke-width:2.0;" x1="866" x2="990" y1="453.5" y2="453.5"/><text fill="#000000" font-family="sans-serif" font-size="14" lengthAdjust="spacing" textLength="114" x="871" y="471.0352">/path : Path Item</text><text fill="#000000" font-family="sans-serif" font-size="14" lengthAdjust="spacing" textLength="64" x="871" y="487.5234">^x- : Any</text><line style="stroke:#6495ED;stroke-width:2.0;" x1="866" x2="990" y1="494.4766" y2="494.4766"/></g><!--class Definitions--><g id="elem_Definitions"><rect codeLine="222" fill="#F1F1F1" height="64.4883" id="Definitions" rx="2.5" ry="2.5" style="stroke:#FF00FF;stroke-width:2.0;" width="115" x="409.5" y="983"/><ellipse cx="428.55" cy="999" fill="#ADD1B2" rx="11" ry="11" style="stroke:#181818;stroke-width:1.0;"/><path d="M431.0231,1005.1431 Q430.4421,1005.4419 429.8029,1005.5913 Q429.1638,1005.7407 428.4582,1005.7407 Q425.9514,1005.7407 424.6315,1004.0889 Q423.3117,1002.437 423.3117,999.3159 Q423.3117,996.1865 424.6315,994.5347 Q425.9514,992.8828 428.4582,992.8828 Q429.1638,992.8828 429.8112,993.0322 Q430.4587,993.1816 431.0231,993.4805 L431.0231,996.2031 Q430.3923,995.6221 429.7988,995.3523 Q429.2053,995.0825 428.5744,995.0825 Q427.2297,995.0825 426.5449,996.1492 Q425.8601,997.2158 425.8601,999.3159 Q425.8601,1001.4077 426.5449,1002.4744 Q427.2297,1003.541 428.5744,1003.541 Q429.2053,1003.541 429.7988,1003.2712 Q430.3923,1003.0015 431.0231,1002.4204 Z " fill="#000000"/><text fill="#000000" font-family="sans-serif" font-size="14" lengthAdjust="spacing" textLength="74" x="443.45" y="1004.291">Definitions</text><line style="stroke:#FF00FF;stroke-width:2.0;" x1="410.5" x2="523.5" y1="1015" y2="1015"/><text fill="#000000" font-family="sans-serif" font-size="14" lengthAdjust="spacing" textLength="103" x="415.5" y="1032.5352">name : Schema</text><line style="stroke:#FF00FF;stroke-width:2.0;" x1="410.5" x2="523.5" y1="1039.4883" y2="1039.4883"/></g><!--class Parameters Definitions--><g id="elem_Parameters Definitions"><rect codeLine="227" fill="#F1F1F1" height="64.4883" id="Parameters Definitions" rx="2.5" ry="2.5" style="stroke:#FFD700;stroke-width:2.0;" width="187" x="1208.5" y="983"/><ellipse cx="1223.5" cy="999" fill="#ADD1B2" rx="11" ry="11" style="stroke:#181818;stroke-width:1.0;"/><path d="M1225.9731,1005.1431 Q1225.3921,1005.4419 1224.7529,1005.5913 Q1224.1138,1005.7407 1223.4082,1005.7407 Q1220.9014,1005.7407 1219.5815,1004.0889 Q1218.2617,1002.437 1218.2617,999.3159 Q1218.2617,996.1865 1219.5815,994.5347 Q1220.9014,992.8828 1223.4082,992.8828 Q1224.1138,992.8828 1224.7612,993.0322 Q1225.4087,993.1816 1225.9731,993.4805 L1225.9731,996.2031 Q1225.3423,995.6221 1224.7488,995.3523 Q1224.1553,995.0825 1223.5244,995.0825 Q1222.1797,995.0825 1221.4949,996.1492 Q1220.8101,997.2158 1220.8101,999.3159 Q1220.8101,1001.4077 1221.4949,1002.4744 Q1222.1797,1003.541 1223.5244,1003.541 Q1224.1553,1003.541 1224.7488,1003.2712 Q1225.3423,1003.0015 1225.9731,1002.4204 Z " fill="#000000"/><text fill="#000000" font-family="sans-serif" font-size="14" lengthAdjust="spacing" textLength="155" x="1237.5" y="1004.291">Parameters Definitions</text><line style="stroke:#FFD700;stroke-width:2.0;" x1="1209.5" x2="1394.5" y1="1015" y2="1015"/><text fill="#000000" font-family="sans-serif" font-size="14" lengthAdjust="spacing" textLength="120" x="1214.5" y="1032.5352">name : Parameter</text><line style="stroke:#FFD700;stroke-width:2.0;" x1="1209.5" x2="1394.5" y1="1039.4883" y2="1039.4883"/></g><!--class Responses Definitions--><g id="elem_Responses Definitions"><rect codeLine="232" fill="#F1F1F1" height="64.4883" id="Responses Definitions" rx="2.5" ry="2.5" style="stroke:#ADFF2F;stroke-width:2.0;" width="183" x="1389.5" y="1400.5"/><ellipse cx="1404.5" cy="1416.5" fill="#ADD1B2" rx="11" ry="11" style="stroke:#181818;stroke-width:1.0;"/><path d="M1406.9731,1422.6431 Q1406.3921,1422.9419 1405.7529,1423.0913 Q1405.1138,1423.2407 1404.4082,1423.2407 Q1401.9014,1423.2407 1400.5815,1421.5889 Q1399.2617,1419.937 1399.2617,1416.8159 Q1399.2617,1413.6865 1400.5815,1412.0347 Q1401.9014,1410.3828 1404.4082,1410.3828 Q1405.1138,1410.3828 1405.7612,1410.5322 Q1406.4087,1410.6816 1406.9731,1410.9805 L1406.9731,1413.7031 Q1406.3423,1413.1221 1405.7488,1412.8523 Q1405.1553,1412.5825 1404.5244,1412.5825 Q1403.1797,1412.5825 1402.4949,1413.6492 Q1401.8101,1414.7158 1401.8101,1416.8159 Q1401.8101,1418.9077 1402.4949,1419.9744 Q1403.1797,1421.041 1404.5244,1421.041 Q1405.1553,1421.041 1405.7488,1420.7712 Q1406.3423,1420.5015 1406.9731,1419.9204 Z " fill="#000000"/><text fill="#000000" font-family="sans-serif" font-size="14" lengthAdjust="spacing" textLength="151" x="1418.5" y="1421.791">Responses Definitions</text><line style="stroke:#ADFF2F;stroke-width:2.0;" x1="1390.5" x2="1571.5" y1="1432.5" y2="1432.5"/><text fill="#000000" font-family="sans-serif" font-size="14" lengthAdjust="spacing" textLength="116" x="1395.5" y="1450.0352">name : Response</text><line style="stroke:#ADFF2F;stroke-width:2.0;" x1="1390.5" x2="1571.5" y1="1456.9883" y2="1456.9883"/></g><!--class Security Definitions--><g id="elem_Security Definitions"><rect codeLine="237" fill="#F1F1F1" height="64.4883" id="Security Definitions" rx="2.5" ry="2.5" style="stroke:#FF69B4;stroke-width:2.0;" width="173" x="600.5" y="429.5"/><ellipse cx="619.55" cy="445.5" fill="#ADD1B2" rx="11" ry="11" style="stroke:#181818;stroke-width:1.0;"/><path d="M622.0231,451.6431 Q621.4421,451.9419 620.8029,452.0913 Q620.1638,452.2407 619.4582,452.2407 Q616.9514,452.2407 615.6315,450.5889 Q614.3117,448.937 614.3117,445.8159 Q614.3117,442.6865 615.6315,441.0347 Q616.9514,439.3828 619.4582,439.3828 Q620.1638,439.3828 620.8112,439.5322 Q621.4587,439.6816 622.0231,439.9805 L622.0231,442.7031 Q621.3923,442.1221 620.7988,441.8523 Q620.2053,441.5825 619.5744,441.5825 Q618.2297,441.5825 617.5449,442.6492 Q616.8601,443.7158 616.8601,445.8159 Q616.8601,447.9077 617.5449,448.9744 Q618.2297,450.041 619.5744,450.041 Q620.2053,450.041 620.7988,449.7712 Q621.3923,449.5015 622.0231,448.9204 Z " fill="#000000"/><text fill="#000000" font-family="sans-serif" font-size="14" lengthAdjust="spacing" textLength="132" x="634.45" y="450.791">Security Definitions</text><line style="stroke:#FF69B4;stroke-width:2.0;" x1="601.5" x2="772.5" y1="461.5" y2="461.5"/><text fill="#000000" font-family="sans-serif" font-size="14" lengthAdjust="spacing" textLength="161" x="606.5" y="479.0352">name : Security Scheme</text><line style="stroke:#FF69B4;stroke-width:2.0;" x1="601.5" x2="772.5" y1="485.9883" y2="485.9883"/></g><!--class Security Requirement--><g id="elem_Security Requirement"><rect codeLine="259" fill="#F1F1F1" height="64.4883" id="Security Requirement" rx="2.5" ry="2.5" style="stroke:#F08080;stroke-width:2.0;" width="178" x="521" y="1400.5"/><ellipse cx="536" cy="1416.5" fill="#ADD1B2" rx="11" ry="11" style="stroke:#181818;stroke-width:1.0;"/><path d="M538.4731,1422.6431 Q537.8921,1422.9419 537.2529,1423.0913 Q536.6138,1423.2407 535.9082,1423.2407 Q533.4014,1423.2407 532.0815,1421.5889 Q530.7617,1419.937 530.7617,1416.8159 Q530.7617,1413.6865 532.0815,1412.0347 Q533.4014,1410.3828 535.9082,1410.3828 Q536.6138,1410.3828 537.2612,1410.5322 Q537.9087,1410.6816 538.4731,1410.9805 L538.4731,1413.7031 Q537.8423,1413.1221 537.2488,1412.8523 Q536.6553,1412.5825 536.0244,1412.5825 Q534.6797,1412.5825 533.9949,1413.6492 Q533.3101,1414.7158 533.3101,1416.8159 Q533.3101,1418.9077 533.9949,1419.9744 Q534.6797,1421.041 536.0244,1421.041 Q536.6553,1421.041 537.2488,1420.7712 Q537.8423,1420.5015 538.4731,1419.9204 Z " fill="#000000"/><text fill="#000000" font-family="sans-serif" font-size="14" lengthAdjust="spacing" textLength="146" x="550" y="1421.791">Security Requirement</text><line style="stroke:#F08080;stroke-width:2.0;" x1="522" x2="698" y1="1432.5" y2="1432.5"/><text fill="#000000" font-family="sans-serif" font-size="14" lengthAdjust="spacing" textLength="147" x="527" y="1450.0352">name : array of string</text><line style="stroke:#F08080;stroke-width:2.0;" x1="522" x2="698" y1="1456.9883" y2="1456.9883"/></g><!--class Tag--><g id="elem_Tag"><rect codeLine="190" fill="#F1F1F1" height="113.9531" id="Tag" rx="2.5" ry="2.5" style="stroke:#FF1493;stroke-width:2.0;" width="280" x="7" y="1836.5"/><ellipse cx="129.75" cy="1852.5" fill="#ADD1B2" rx="11" ry="11" style="stroke:#181818;stroke-width:1.0;"/><path d="M132.2231,1858.6431 Q131.6421,1858.9419 131.0029,1859.0913 Q130.3638,1859.2407 129.6582,1859.2407 Q127.1514,1859.2407 125.8315,1857.5889 Q124.5117,1855.937 124.5117,1852.8159 Q124.5117,1849.6865 125.8315,1848.0347 Q127.1514,1846.3828 129.6582,1846.3828 Q130.3638,1846.3828 131.0112,1846.5322 Q131.6587,1846.6816 132.2231,1846.9805 L132.2231,1849.7031 Q131.5923,1849.1221 130.9988,1848.8523 Q130.4053,1848.5825 129.7744,1848.5825 Q128.4297,1848.5825 127.7449,1849.6492 Q127.0601,1850.7158 127.0601,1852.8159 Q127.0601,1854.9077 127.7449,1855.9744 Q128.4297,1857.041 129.7744,1857.041 Q130.4053,1857.041 130.9988,1856.7712 Q131.5923,1856.5015 132.2231,1855.9204 Z " fill="#000000"/><text fill="#000000" font-family="sans-serif" font-size="14" lengthAdjust="spacing" textLength="26" x="150.25" y="1857.791">Tag</text><line style="stroke:#FF1493;stroke-width:2.0;" x1="8" x2="286" y1="1868.5" y2="1868.5"/><text fill="#000000" font-family="sans-serif" font-size="14" lengthAdjust="spacing" textLength="90" x="13" y="1886.0352">name : string</text><text fill="#000000" font-family="sans-serif" font-size="14" lengthAdjust="spacing" textLength="129" x="13" y="1902.5234">description : string</text><text fill="#000000" font-family="sans-serif" font-size="14" lengthAdjust="spacing" textLength="268" x="13" y="1919.0117">externalDocs : External Documentation</text><text fill="#000000" font-family="sans-serif" font-size="14" lengthAdjust="spacing" textLength="64" x="13" y="1935.5">^x- : Any</text><line style="stroke:#FF1493;stroke-width:2.0;" x1="8" x2="286" y1="1942.4531" y2="1942.4531"/></g><!--class External Documentation--><g id="elem_External Documentation"><rect codeLine="101" fill="#F1F1F1" height="97.4648" id="External Documentation" rx="2.5" ry="2.5" style="stroke:#8B008B;stroke-width:2.0;" width="198" x="300" y="2365"/><ellipse cx="315" cy="2381" fill="#ADD1B2" rx="11" ry="11" style="stroke:#181818;stroke-width:1.0;"/><path d="M317.4731,2387.1431 Q316.8921,2387.4419 316.2529,2387.5913 Q315.6138,2387.7407 314.9082,2387.7407 Q312.4014,2387.7407 311.0815,2386.0889 Q309.7617,2384.437 309.7617,2381.3159 Q309.7617,2378.1865 311.0815,2376.5347 Q312.4014,2374.8828 314.9082,2374.8828 Q315.6138,2374.8828 316.2612,2375.0322 Q316.9087,2375.1816 317.4731,2375.4805 L317.4731,2378.2031 Q316.8423,2377.6221 316.2488,2377.3523 Q315.6553,2377.0825 315.0244,2377.0825 Q313.6797,2377.0825 312.9949,2378.1492 Q312.3101,2379.2158 312.3101,2381.3159 Q312.3101,2383.4077 312.9949,2384.4744 Q313.6797,2385.541 315.0244,2385.541 Q315.6553,2385.541 316.2488,2385.2712 Q316.8423,2385.0015 317.4731,2384.4204 Z " fill="#000000"/><text fill="#000000" font-family="sans-serif" font-size="14" lengthAdjust="spacing" textLength="166" x="329" y="2386.291">External Documentation</text><line style="stroke:#8B008B;stroke-width:2.0;" x1="301" x2="497" y1="2397" y2="2397"/><text fill="#000000" font-family="sans-serif" font-size="14" lengthAdjust="spacing" textLength="129" x="306" y="2414.5352">description : string</text><text fill="#000000" font-family="sans-serif" font-size="14" lengthAdjust="spacing" textLength="71" x="306" y="2431.0234">url : string</text><text fill="#000000" font-family="sans-serif" font-size="14" lengthAdjust="spacing" textLength="64" x="306" y="2447.5117">^x- : Any</text><line style="stroke:#8B008B;stroke-width:2.0;" x1="301" x2="497" y1="2454.4648" y2="2454.4648"/></g><!--class Contact--><g id="elem_Contact"><rect codeLine="41" fill="#F1F1F1" height="113.9531" id="Contact" rx="2.5" ry="2.5" style="stroke:#5F9EA0;stroke-width:2.0;" width="102" x="1668" y="657"/><ellipse cx="1690.65" cy="673" fill="#ADD1B2" rx="11" ry="11" style="stroke:#181818;stroke-width:1.0;"/><path d="M1693.1231,679.1431 Q1692.5421,679.4419 1691.9029,679.5913 Q1691.2638,679.7407 1690.5582,679.7407 Q1688.0514,679.7407 1686.7315,678.0889 Q1685.4117,676.437 1685.4117,673.3159 Q1685.4117,670.1865 1686.7315,668.5347 Q1688.0514,666.8828 1690.5582,666.8828 Q1691.2638,666.8828 1691.9112,667.0322 Q1692.5587,667.1816 1693.1231,667.4805 L1693.1231,670.2031 Q1692.4923,669.6221 1691.8988,669.3523 Q1691.3053,669.0825 1690.6744,669.0825 Q1689.3297,669.0825 1688.6449,670.1492 Q1687.9601,671.2158 1687.9601,673.3159 Q1687.9601,675.4077 1688.6449,676.4744 Q1689.3297,677.541 1690.6744,677.541 Q1691.3053,677.541 1691.8988,677.2712 Q1692.4923,677.0015 1693.1231,676.4204 Z " fill="#000000"/><text fill="#000000" font-family="sans-serif" font-size="14" lengthAdjust="spacing" textLength="53" x="1706.35" y="678.291">Contact</text><line style="stroke:#5F9EA0;stroke-width:2.0;" x1="1669" x2="1769" y1="689" y2="689"/><text fill="#000000" font-family="sans-serif" font-size="14" lengthAdjust="spacing" textLength="90" x="1674" y="706.5352">name : string</text><text fill="#000000" font-family="sans-serif" font-size="14" lengthAdjust="spacing" textLength="71" x="1674" y="723.0234">url : string</text><text fill="#000000" font-family="sans-serif" font-size="14" lengthAdjust="spacing" textLength="89" x="1674" y="739.5117">email : string</text><text fill="#000000" font-family="sans-serif" font-size="14" lengthAdjust="spacing" textLength="64" x="1674" y="756">^x- : Any</text><line style="stroke:#5F9EA0;stroke-width:2.0;" x1="1669" x2="1769" y1="762.9531" y2="762.9531"/></g><!--class License--><g id="elem_License"><rect codeLine="48" fill="#F1F1F1" height="97.4648" id="License" rx="2.5" ry="2.5" style="stroke:#FF7F50;stroke-width:2.0;" width="102" x="1531" y="665.5"/><ellipse cx="1555" cy="681.5" fill="#ADD1B2" rx="11" ry="11" style="stroke:#181818;stroke-width:1.0;"/><path d="M1557.4731,687.6431 Q1556.8921,687.9419 1556.2529,688.0913 Q1555.6138,688.2407 1554.9082,688.2407 Q1552.4014,688.2407 1551.0815,686.5889 Q1549.7617,684.937 1549.7617,681.8159 Q1549.7617,678.6865 1551.0815,677.0347 Q1552.4014,675.3828 1554.9082,675.3828 Q1555.6138,675.3828 1556.2612,675.5322 Q1556.9087,675.6816 1557.4731,675.9805 L1557.4731,678.7031 Q1556.8423,678.1221 1556.2488,677.8523 Q1555.6553,677.5825 1555.0244,677.5825 Q1553.6797,677.5825 1552.9949,678.6492 Q1552.3101,679.7158 1552.3101,681.8159 Q1552.3101,683.9077 1552.9949,684.9744 Q1553.6797,686.041 1555.0244,686.041 Q1555.6553,686.041 1556.2488,685.7712 Q1556.8423,685.5015 1557.4731,684.9204 Z " fill="#000000"/><text fill="#000000" font-family="sans-serif" font-size="14" lengthAdjust="spacing" textLength="50" x="1571" y="686.791">License</text><line style="stroke:#FF7F50;stroke-width:2.0;" x1="1532" x2="1632" y1="697.5" y2="697.5"/><text fill="#000000" font-family="sans-serif" font-size="14" lengthAdjust="spacing" textLength="90" x="1537" y="715.0352">name : string</text><text fill="#000000" font-family="sans-serif" font-size="14" lengthAdjust="spacing" textLength="71" x="1537" y="731.5234">url : string</text><text fill="#000000" font-family="sans-serif" font-size="14" lengthAdjust="spacing" textLength="64" x="1537" y="748.0117">^x- : Any</text><line style="stroke:#FF7F50;stroke-width:2.0;" x1="1532" x2="1632" y1="754.9648" y2="754.9648"/></g><!--class Path Item--><g id="elem_Path Item"><rect codeLine="60" fill="#F1F1F1" height="212.8828" id="Path Item" rx="2.5" ry="2.5" style="stroke:#008B8B;stroke-width:2.0;" width="280" x="828" y="610"/><ellipse cx="931.75" cy="626" fill="#ADD1B2" rx="11" ry="11" style="stroke:#181818;stroke-width:1.0;"/><path d="M934.2231,632.1431 Q933.6421,632.4419 933.0029,632.5913 Q932.3638,632.7407 931.6582,632.7407 Q929.1514,632.7407 927.8315,631.0889 Q926.5117,629.437 926.5117,626.3159 Q926.5117,623.1865 927.8315,621.5347 Q929.1514,619.8828 931.6582,619.8828 Q932.3638,619.8828 933.0112,620.0322 Q933.6587,620.1816 934.2231,620.4805 L934.2231,623.2031 Q933.5923,622.6221 932.9988,622.3523 Q932.4053,622.0825 931.7744,622.0825 Q930.4297,622.0825 929.7449,623.1492 Q929.0601,624.2158 929.0601,626.3159 Q929.0601,628.4077 929.7449,629.4744 Q930.4297,630.541 931.7744,630.541 Q932.4053,630.541 932.9988,630.2712 Q933.5923,630.0015 934.2231,629.4204 Z " fill="#000000"/><text fill="#000000" font-family="sans-serif" font-size="14" lengthAdjust="spacing" textLength="64" x="952.25" y="631.291">Path Item</text><line style="stroke:#008B8B;stroke-width:2.0;" x1="829" x2="1107" y1="642" y2="642"/><text fill="#000000" font-family="sans-serif" font-size="14" lengthAdjust="spacing" textLength="80" x="834" y="659.5352">$ref : string</text><text fill="#000000" font-family="sans-serif" font-size="14" lengthAdjust="spacing" textLength="103" x="834" y="676.0234">get : Operation</text><text fill="#000000" font-family="sans-serif" font-size="14" lengthAdjust="spacing" textLength="104" x="834" y="692.5117">put : Operation</text><text fill="#000000" font-family="sans-serif" font-size="14" lengthAdjust="spacing" textLength="111" x="834" y="709">post : Operation</text><text fill="#000000" font-family="sans-serif" font-size="14" lengthAdjust="spacing" textLength="123" x="834" y="725.4883">delete : Operation</text><text fill="#000000" font-family="sans-serif" font-size="14" lengthAdjust="spacing" textLength="133" x="834" y="741.9766">options : Operation</text><text fill="#000000" font-family="sans-serif" font-size="14" lengthAdjust="spacing" textLength="115" x="834" y="758.4648">head : Operation</text><text fill="#000000" font-family="sans-serif" font-size="14" lengthAdjust="spacing" textLength="119" x="834" y="774.9531">patch : Operation</text><text fill="#000000" font-family="sans-serif" font-size="14" lengthAdjust="spacing" textLength="268" x="834" y="791.4414">parameters : array of Parameter or $ref</text><text fill="#000000" font-family="sans-serif" font-size="14" lengthAdjust="spacing" textLength="64" x="834" y="807.9297">^x- : Any</text><line style="stroke:#008B8B;stroke-width:2.0;" x1="829" x2="1107" y1="814.8828" y2="814.8828"/></g><!--class Operation--><g id="elem_Operation"><rect codeLine="81" fill="#F1F1F1" height="262.3477" id="Operation" rx="2.5" ry="2.5" style="stroke:#006400;stroke-width:2.0;" width="280" x="806" y="886"/><ellipse cx="907.25" cy="902" fill="#ADD1B2" rx="11" ry="11" style="stroke:#181818;stroke-width:1.0;"/><path d="M909.7231,908.1431 Q909.1421,908.4419 908.5029,908.5913 Q907.8638,908.7407 907.1582,908.7407 Q904.6514,908.7407 903.3315,907.0889 Q902.0117,905.437 902.0117,902.3159 Q902.0117,899.1865 903.3315,897.5347 Q904.6514,895.8828 907.1582,895.8828 Q907.8638,895.8828 908.5112,896.0322 Q909.1587,896.1816 909.7231,896.4805 L909.7231,899.2031 Q909.0923,898.6221 908.4988,898.3523 Q907.9053,898.0825 907.2744,898.0825 Q905.9297,898.0825 905.2449,899.1492 Q904.5601,900.2158 904.5601,902.3159 Q904.5601,904.4077 905.2449,905.4744 Q905.9297,906.541 907.2744,906.541 Q907.9053,906.541 908.4988,906.2712 Q909.0923,906.0015 909.7231,905.4204 Z " fill="#000000"/><text fill="#000000" font-family="sans-serif" font-size="14" lengthAdjust="spacing" textLength="69" x="927.75" y="907.291">Operation</text><line style="stroke:#006400;stroke-width:2.0;" x1="807" x2="1085" y1="918" y2="918"/><text fill="#000000" font-family="sans-serif" font-size="14" lengthAdjust="spacing" textLength="138" x="812" y="935.5352">tags : array of string</text><text fill="#000000" font-family="sans-serif" font-size="14" lengthAdjust="spacing" textLength="115" x="812" y="952.0234">summary : string</text><text fill="#000000" font-family="sans-serif" font-size="14" lengthAdjust="spacing" textLength="129" x="812" y="968.5117">description : string</text><text fill="#000000" font-family="sans-serif" font-size="14" lengthAdjust="spacing" textLength="268" x="812" y="985">externalDocs : External Documentation</text><text fill="#000000" font-family="sans-serif" font-size="14" lengthAdjust="spacing" textLength="132" x="812" y="1001.4883">operationId : string</text><text fill="#000000" font-family="sans-serif" font-size="14" lengthAdjust="spacing" textLength="178" x="812" y="1017.9766">consumes : array of string</text><text fill="#000000" font-family="sans-serif" font-size="14" lengthAdjust="spacing" textLength="173" x="812" y="1034.4648">produces : array of string</text><text fill="#000000" font-family="sans-serif" font-size="14" lengthAdjust="spacing" textLength="268" x="812" y="1050.9531">parameters : array of Parameter or $ref</text><text fill="#000000" font-family="sans-serif" font-size="14" lengthAdjust="spacing" textLength="155" x="812" y="1067.4414">responses : Responses</text><text fill="#000000" font-family="sans-serif" font-size="14" lengthAdjust="spacing" textLength="168" x="812" y="1083.9297">schemes : array of string</text><text fill="#000000" font-family="sans-serif" font-size="14" lengthAdjust="spacing" textLength="145" x="812" y="1100.418">deprecated : boolean</text><text fill="#000000" font-family="sans-serif" font-size="14" lengthAdjust="spacing" textLength="268" x="812" y="1116.9063">security : array of Security Requirement</text><text fill="#000000" font-family="sans-serif" font-size="14" lengthAdjust="spacing" textLength="64" x="812" y="1133.3945">^x- : Any</text><line style="stroke:#006400;stroke-width:2.0;" x1="807" x2="1085" y1="1140.3477" y2="1140.3477"/></g><!--class Parameter--><g id="elem_Parameter"><rect codeLine="107" fill="#F1F1F1" height="443.7188" id="Parameter" rx="2.5" ry="2.5" style="stroke:#FF8C00;stroke-width:2.0;" width="211" x="813.5" y="1212"/><ellipse cx="879.75" cy="1228" fill="#ADD1B2" rx="11" ry="11" style="stroke:#181818;stroke-width:1.0;"/><path d="M882.2231,1234.1431 Q881.6421,1234.4419 881.0029,1234.5913 Q880.3638,1234.7407 879.6582,1234.7407 Q877.1514,1234.7407 875.8315,1233.0889 Q874.5117,1231.437 874.5117,1228.3159 Q874.5117,1225.1865 875.8315,1223.5347 Q877.1514,1221.8828 879.6582,1221.8828 Q880.3638,1221.8828 881.0112,1222.0322 Q881.6587,1222.1816 882.2231,1222.4805 L882.2231,1225.2031 Q881.5923,1224.6221 880.9988,1224.3523 Q880.4053,1224.0825 879.7744,1224.0825 Q878.4297,1224.0825 877.7449,1225.1492 Q877.0601,1226.2158 877.0601,1228.3159 Q877.0601,1230.4077 877.7449,1231.4744 Q878.4297,1232.541 879.7744,1232.541 Q880.4053,1232.541 880.9988,1232.2712 Q881.5923,1232.0015 882.2231,1231.4204 Z " fill="#000000"/><text fill="#000000" font-family="sans-serif" font-size="14" lengthAdjust="spacing" textLength="70" x="900.25" y="1233.291">Parameter</text><line style="stroke:#FF8C00;stroke-width:2.0;" x1="814.5" x2="1023.5" y1="1244" y2="1244"/><text fill="#000000" font-family="sans-serif" font-size="14" lengthAdjust="spacing" textLength="90" x="819.5" y="1261.5352">name : string</text><text fill="#000000" font-family="sans-serif" font-size="14" lengthAdjust="spacing" textLength="65" x="819.5" y="1278.0234">in : string</text><text fill="#000000" font-family="sans-serif" font-size="14" lengthAdjust="spacing" textLength="129" x="819.5" y="1294.5117">description : string</text><text fill="#000000" font-family="sans-serif" font-size="14" lengthAdjust="spacing" textLength="127" x="819.5" y="1311">required : boolean</text><text fill="#000000" font-family="sans-serif" font-size="14" lengthAdjust="spacing" textLength="117" x="819.5" y="1327.4883">schema : Schema</text><text fill="#000000" font-family="sans-serif" font-size="14" lengthAdjust="spacing" textLength="81" x="819.5" y="1343.9766">type : string</text><text fill="#000000" font-family="sans-serif" font-size="14" lengthAdjust="spacing" textLength="98" x="819.5" y="1360.4648">format : string</text><text fill="#000000" font-family="sans-serif" font-size="14" lengthAdjust="spacing" textLength="184" x="819.5" y="1376.9531">allowEmptyValue : boolean</text><text fill="#000000" font-family="sans-serif" font-size="14" lengthAdjust="spacing" textLength="86" x="819.5" y="1393.4414">items : Items</text><text fill="#000000" font-family="sans-serif" font-size="14" lengthAdjust="spacing" textLength="167" x="819.5" y="1409.9297">collectionFormat : string</text><text fill="#000000" font-family="sans-serif" font-size="14" lengthAdjust="spacing" textLength="86" x="819.5" y="1426.418">default : Any</text><text fill="#000000" font-family="sans-serif" font-size="14" lengthAdjust="spacing" textLength="135" x="819.5" y="1442.9063">maximum : number</text><text fill="#000000" font-family="sans-serif" font-size="14" lengthAdjust="spacing" textLength="199" x="819.5" y="1459.3945">exclusiveMaximum : boolean</text><text fill="#000000" font-family="sans-serif" font-size="14" lengthAdjust="spacing" textLength="131" x="819.5" y="1475.8828">minimum : number</text><text fill="#000000" font-family="sans-serif" font-size="14" lengthAdjust="spacing" textLength="195" x="819.5" y="1492.3711">exclusiveMinimum : boolean</text><text fill="#000000" font-family="sans-serif" font-size="14" lengthAdjust="spacing" textLength="138" x="819.5" y="1508.8594">maxLength : integer</text><text fill="#000000" font-family="sans-serif" font-size="14" lengthAdjust="spacing" textLength="134" x="819.5" y="1525.3477">minLength : integer</text><text fill="#000000" font-family="sans-serif" font-size="14" lengthAdjust="spacing" textLength="102" x="819.5" y="1541.8359">pattern : string</text><text fill="#000000" font-family="sans-serif" font-size="14" lengthAdjust="spacing" textLength="128" x="819.5" y="1558.3242">maxItems : integer</text><text fill="#000000" font-family="sans-serif" font-size="14" lengthAdjust="spacing" textLength="124" x="819.5" y="1574.8125">minItems : integer</text><text fill="#000000" font-family="sans-serif" font-size="14" lengthAdjust="spacing" textLength="153" x="819.5" y="1591.3008">uniqueItems : boolean</text><text fill="#000000" font-family="sans-serif" font-size="14" lengthAdjust="spacing" textLength="134" x="819.5" y="1607.7891">enum : array of Any</text><text fill="#000000" font-family="sans-serif" font-size="14" lengthAdjust="spacing" textLength="138" x="819.5" y="1624.2773">multipleOf : number</text><text fill="#000000" font-family="sans-serif" font-size="14" lengthAdjust="spacing" textLength="64" x="819.5" y="1640.7656">^x- : Any</text><line style="stroke:#FF8C00;stroke-width:2.0;" x1="814.5" x2="1023.5" y1="1647.7188" y2="1647.7188"/></g><!--class Responses--><g id="elem_Responses"><rect codeLine="158" fill="#F1F1F1" height="97.4648" id="Responses" rx="2.5" ry="2.5" style="stroke:#E9967A;stroke-width:2.0;" width="263" x="1075.5" y="1384.5"/><ellipse cx="1166.25" cy="1400.5" fill="#ADD1B2" rx="11" ry="11" style="stroke:#181818;stroke-width:1.0;"/><path d="M1168.7231,1406.6431 Q1168.1421,1406.9419 1167.5029,1407.0913 Q1166.8638,1407.2407 1166.1582,1407.2407 Q1163.6514,1407.2407 1162.3315,1405.5889 Q1161.0117,1403.937 1161.0117,1400.8159 Q1161.0117,1397.6865 1162.3315,1396.0347 Q1163.6514,1394.3828 1166.1582,1394.3828 Q1166.8638,1394.3828 1167.5112,1394.5322 Q1168.1587,1394.6816 1168.7231,1394.9805 L1168.7231,1397.7031 Q1168.0923,1397.1221 1167.4988,1396.8523 Q1166.9053,1396.5825 1166.2744,1396.5825 Q1164.9297,1396.5825 1164.2449,1397.6492 Q1163.5601,1398.7158 1163.5601,1400.8159 Q1163.5601,1402.9077 1164.2449,1403.9744 Q1164.9297,1405.041 1166.2744,1405.041 Q1166.9053,1405.041 1167.4988,1404.7712 Q1168.0923,1404.5015 1168.7231,1403.9204 Z " fill="#000000"/><text fill="#000000" font-family="sans-serif" font-size="14" lengthAdjust="spacing" textLength="73" x="1186.75" y="1405.791">Responses</text><line style="stroke:#E9967A;stroke-width:2.0;" x1="1076.5" x2="1337.5" y1="1416.5" y2="1416.5"/><text fill="#000000" font-family="sans-serif" font-size="14" lengthAdjust="spacing" textLength="177" x="1081.5" y="1434.0352">default : Response or $ref</text><text fill="#000000" font-family="sans-serif" font-size="14" lengthAdjust="spacing" textLength="251" x="1081.5" y="1450.5234">HTTP Status Code : Response or $ref</text><text fill="#000000" font-family="sans-serif" font-size="14" lengthAdjust="spacing" textLength="64" x="1081.5" y="1467.0117">^x- : Any</text><line style="stroke:#E9967A;stroke-width:2.0;" x1="1076.5" x2="1337.5" y1="1473.9648" y2="1473.9648"/></g><!--class Schema--><g id="elem_Schema"><rect codeLine="202" fill="#F1F1F1" height="146.9297" id="Schema" rx="2.5" ry="2.5" style="stroke:#B22222;stroke-width:2.0;" width="280" x="514" y="2132"/><ellipse cx="623.25" cy="2148" fill="#ADD1B2" rx="11" ry="11" style="stroke:#181818;stroke-width:1.0;"/><path d="M625.7231,2154.1431 Q625.1421,2154.4419 624.5029,2154.5913 Q623.8638,2154.7407 623.1582,2154.7407 Q620.6514,2154.7407 619.3315,2153.0889 Q618.0117,2151.437 618.0117,2148.3159 Q618.0117,2145.1865 619.3315,2143.5347 Q620.6514,2141.8828 623.1582,2141.8828 Q623.8638,2141.8828 624.5112,2142.0322 Q625.1587,2142.1816 625.7231,2142.4805 L625.7231,2145.2031 Q625.0923,2144.6221 624.4988,2144.3523 Q623.9053,2144.0825 623.2744,2144.0825 Q621.9297,2144.0825 621.2449,2145.1492 Q620.5601,2146.2158 620.5601,2148.3159 Q620.5601,2150.4077 621.2449,2151.4744 Q621.9297,2152.541 623.2744,2152.541 Q623.9053,2152.541 624.4988,2152.2712 Q625.0923,2152.0015 625.7231,2151.4204 Z " fill="#000000"/><text fill="#000000" font-family="sans-serif" font-size="14" lengthAdjust="spacing" textLength="53" x="643.75" y="2153.291">Schema</text><line style="stroke:#B22222;stroke-width:2.0;" x1="515" x2="793" y1="2164" y2="2164"/><text fill="#000000" font-family="sans-serif" font-size="14" lengthAdjust="spacing" textLength="143" x="520" y="2181.5352">discriminator : string</text><text fill="#000000" font-family="sans-serif" font-size="14" lengthAdjust="spacing" textLength="130" x="520" y="2198.0234">readOnly : boolean</text><text fill="#000000" font-family="sans-serif" font-size="14" lengthAdjust="spacing" textLength="66" x="520" y="2214.5117">xml : XML</text><text fill="#000000" font-family="sans-serif" font-size="14" lengthAdjust="spacing" textLength="268" x="520" y="2231">externalDocs : External Documentation</text><text fill="#000000" font-family="sans-serif" font-size="14" lengthAdjust="spacing" textLength="97" x="520" y="2247.4883">example : Any</text><text fill="#000000" font-family="sans-serif" font-size="14" lengthAdjust="spacing" textLength="64" x="520" y="2263.9766">^x- : Any</text><line style="stroke:#B22222;stroke-width:2.0;" x1="515" x2="793" y1="2270.9297" y2="2270.9297"/></g><!--class Items--><g id="elem_Items"><rect codeLine="136" fill="#F1F1F1" height="344.7891" id="Items" rx="2.5" ry="2.5" style="stroke:#8B0000;stroke-width:2.0;" width="211" x="814.5" y="1721"/><ellipse cx="897.25" cy="1737" fill="#ADD1B2" rx="11" ry="11" style="stroke:#181818;stroke-width:1.0;"/><path d="M899.7231,1743.1431 Q899.1421,1743.4419 898.5029,1743.5913 Q897.8638,1743.7407 897.1582,1743.7407 Q894.6514,1743.7407 893.3315,1742.0889 Q892.0117,1740.437 892.0117,1737.3159 Q892.0117,1734.1865 893.3315,1732.5347 Q894.6514,1730.8828 897.1582,1730.8828 Q897.8638,1730.8828 898.5112,1731.0322 Q899.1587,1731.1816 899.7231,1731.4805 L899.7231,1734.2031 Q899.0923,1733.6221 898.4988,1733.3523 Q897.9053,1733.0825 897.2744,1733.0825 Q895.9297,1733.0825 895.2449,1734.1492 Q894.5601,1735.2158 894.5601,1737.3159 Q894.5601,1739.4077 895.2449,1740.4744 Q895.9297,1741.541 897.2744,1741.541 Q897.9053,1741.541 898.4988,1741.2712 Q899.0923,1741.0015 899.7231,1740.4204 Z " fill="#000000"/><text fill="#000000" font-family="sans-serif" font-size="14" lengthAdjust="spacing" textLength="37" x="917.75" y="1742.291">Items</text><line style="stroke:#8B0000;stroke-width:2.0;" x1="815.5" x2="1024.5" y1="1753" y2="1753"/><text fill="#000000" font-family="sans-serif" font-size="14" lengthAdjust="spacing" textLength="81" x="820.5" y="1770.5352">type : string</text><text fill="#000000" font-family="sans-serif" font-size="14" lengthAdjust="spacing" textLength="98" x="820.5" y="1787.0234">format : string</text><text fill="#000000" font-family="sans-serif" font-size="14" lengthAdjust="spacing" textLength="86" x="820.5" y="1803.5117">items : Items</text><text fill="#000000" font-family="sans-serif" font-size="14" lengthAdjust="spacing" textLength="167" x="820.5" y="1820">collectionFormat : string</text><text fill="#000000" font-family="sans-serif" font-size="14" lengthAdjust="spacing" textLength="86" x="820.5" y="1836.4883">default : Any</text><text fill="#000000" font-family="sans-serif" font-size="14" lengthAdjust="spacing" textLength="135" x="820.5" y="1852.9766">maximum : number</text><text fill="#000000" font-family="sans-serif" font-size="14" lengthAdjust="spacing" textLength="199" x="820.5" y="1869.4648">exclusiveMaximum : boolean</text><text fill="#000000" font-family="sans-serif" font-size="14" lengthAdjust="spacing" textLength="131" x="820.5" y="1885.9531">minimum : number</text><text fill="#000000" font-family="sans-serif" font-size="14" lengthAdjust="spacing" textLength="195" x="820.5" y="1902.4414">exclusiveMinimum : boolean</text><text fill="#000000" font-family="sans-serif" font-size="14" lengthAdjust="spacing" textLength="138" x="820.5" y="1918.9297">maxLength : integer</text><text fill="#000000" font-family="sans-serif" font-size="14" lengthAdjust="spacing" textLength="134" x="820.5" y="1935.418">minLength : integer</text><text fill="#000000" font-family="sans-serif" font-size="14" lengthAdjust="spacing" textLength="102" x="820.5" y="1951.9063">pattern : string</text><text fill="#000000" font-family="sans-serif" font-size="14" lengthAdjust="spacing" textLength="128" x="820.5" y="1968.3945">maxItems : integer</text><text fill="#000000" font-family="sans-serif" font-size="14" lengthAdjust="spacing" textLength="124" x="820.5" y="1984.8828">minItems : integer</text><text fill="#000000" font-family="sans-serif" font-size="14" lengthAdjust="spacing" textLength="153" x="820.5" y="2001.3711">uniqueItems : boolean</text><text fill="#000000" font-family="sans-serif" font-size="14" lengthAdjust="spacing" textLength="134" x="820.5" y="2017.8594">enum : array of Any</text><text fill="#000000" font-family="sans-serif" font-size="14" lengthAdjust="spacing" textLength="138" x="820.5" y="2034.3477">multipleOf : number</text><text fill="#000000" font-family="sans-serif" font-size="14" lengthAdjust="spacing" textLength="64" x="820.5" y="2050.8359">^x- : Any</text><line style="stroke:#8B0000;stroke-width:2.0;" x1="815.5" x2="1024.5" y1="2057.7891" y2="2057.7891"/></g><!--class Response--><g id="elem_Response"><rect codeLine="166" fill="#F1F1F1" height="130.4414" id="Response" rx="2.5" ry="2.5" style="stroke:#8FBC8F;stroke-width:2.0;" width="149" x="1133.5" y="1828.5"/><ellipse cx="1171.45" cy="1844.5" fill="#ADD1B2" rx="11" ry="11" style="stroke:#181818;stroke-width:1.0;"/><path d="M1173.9231,1850.6431 Q1173.3421,1850.9419 1172.7029,1851.0913 Q1172.0638,1851.2407 1171.3582,1851.2407 Q1168.8514,1851.2407 1167.5315,1849.5889 Q1166.2117,1847.937 1166.2117,1844.8159 Q1166.2117,1841.6865 1167.5315,1840.0347 Q1168.8514,1838.3828 1171.3582,1838.3828 Q1172.0638,1838.3828 1172.7112,1838.5322 Q1173.3587,1838.6816 1173.9231,1838.9805 L1173.9231,1841.7031 Q1173.2923,1841.1221 1172.6988,1840.8523 Q1172.1053,1840.5825 1171.4744,1840.5825 Q1170.1297,1840.5825 1169.4449,1841.6492 Q1168.7601,1842.7158 1168.7601,1844.8159 Q1168.7601,1846.9077 1169.4449,1847.9744 Q1170.1297,1849.041 1171.4744,1849.041 Q1172.1053,1849.041 1172.6988,1848.7712 Q1173.2923,1848.5015 1173.9231,1847.9204 Z " fill="#000000"/><text fill="#000000" font-family="sans-serif" font-size="14" lengthAdjust="spacing" textLength="66" x="1190.55" y="1849.791">Response</text><line style="stroke:#8FBC8F;stroke-width:2.0;" x1="1134.5" x2="1281.5" y1="1860.5" y2="1860.5"/><text fill="#000000" font-family="sans-serif" font-size="14" lengthAdjust="spacing" textLength="129" x="1139.5" y="1878.0352">description : string</text><text fill="#000000" font-family="sans-serif" font-size="14" lengthAdjust="spacing" textLength="117" x="1139.5" y="1894.5234">schema : Schema</text><text fill="#000000" font-family="sans-serif" font-size="14" lengthAdjust="spacing" textLength="123" x="1139.5" y="1911.0117">headers : Headers</text><text fill="#000000" font-family="sans-serif" font-size="14" lengthAdjust="spacing" textLength="137" x="1139.5" y="1927.5">examples : Example</text><text fill="#000000" font-family="sans-serif" font-size="14" lengthAdjust="spacing" textLength="64" x="1139.5" y="1943.9883">^x- : Any</text><line style="stroke:#8FBC8F;stroke-width:2.0;" x1="1134.5" x2="1281.5" y1="1950.9414" y2="1950.9414"/></g><!--class Headers--><g id="elem_Headers"><rect codeLine="177" fill="#F1F1F1" height="64.4883" id="Headers" rx="2.5" ry="2.5" style="stroke:#483D8B;stroke-width:2.0;" width="111" x="1232.5" y="2172"/><ellipse cx="1257.85" cy="2188" fill="#ADD1B2" rx="11" ry="11" style="stroke:#181818;stroke-width:1.0;"/><path d="M1260.3231,2194.1431 Q1259.7421,2194.4419 1259.1029,2194.5913 Q1258.4638,2194.7407 1257.7582,2194.7407 Q1255.2514,2194.7407 1253.9315,2193.0889 Q1252.6117,2191.437 1252.6117,2188.3159 Q1252.6117,2185.1865 1253.9315,2183.5347 Q1255.2514,2181.8828 1257.7582,2181.8828 Q1258.4638,2181.8828 1259.1112,2182.0322 Q1259.7587,2182.1816 1260.3231,2182.4805 L1260.3231,2185.2031 Q1259.6923,2184.6221 1259.0988,2184.3523 Q1258.5053,2184.0825 1257.8744,2184.0825 Q1256.5297,2184.0825 1255.8449,2185.1492 Q1255.1601,2186.2158 1255.1601,2188.3159 Q1255.1601,2190.4077 1255.8449,2191.4744 Q1256.5297,2192.541 1257.8744,2192.541 Q1258.5053,2192.541 1259.0988,2192.2712 Q1259.6923,2192.0015 1260.3231,2191.4204 Z " fill="#000000"/><text fill="#000000" font-family="sans-serif" font-size="14" lengthAdjust="spacing" textLength="56" x="1274.15" y="2193.291">Headers</text><line style="stroke:#483D8B;stroke-width:2.0;" x1="1233.5" x2="1342.5" y1="2204" y2="2204"/><text fill="#000000" font-family="sans-serif" font-size="14" lengthAdjust="spacing" textLength="99" x="1238.5" y="2221.5352">name : Header</text><line style="stroke:#483D8B;stroke-width:2.0;" x1="1233.5" x2="1342.5" y1="2228.4883" y2="2228.4883"/></g><!--class Example--><g id="elem_Example"><rect codeLine="182" fill="#F1F1F1" height="64.4883" id="Example" rx="2.5" ry="2.5" style="stroke:#00CED1;stroke-width:2.0;" width="121" x="1068.5" y="2172"/><ellipse cx="1097" cy="2188" fill="#ADD1B2" rx="11" ry="11" style="stroke:#181818;stroke-width:1.0;"/><path d="M1099.4731,2194.1431 Q1098.8921,2194.4419 1098.2529,2194.5913 Q1097.6138,2194.7407 1096.9082,2194.7407 Q1094.4014,2194.7407 1093.0815,2193.0889 Q1091.7617,2191.437 1091.7617,2188.3159 Q1091.7617,2185.1865 1093.0815,2183.5347 Q1094.4014,2181.8828 1096.9082,2181.8828 Q1097.6138,2181.8828 1098.2612,2182.0322 Q1098.9087,2182.1816 1099.4731,2182.4805 L1099.4731,2185.2031 Q1098.8423,2184.6221 1098.2488,2184.3523 Q1097.6553,2184.0825 1097.0244,2184.0825 Q1095.6797,2184.0825 1094.9949,2185.1492 Q1094.3101,2186.2158 1094.3101,2188.3159 Q1094.3101,2190.4077 1094.9949,2191.4744 Q1095.6797,2192.541 1097.0244,2192.541 Q1097.6553,2192.541 1098.2488,2192.2712 Q1098.8423,2192.0015 1099.4731,2191.4204 Z " fill="#000000"/><text fill="#000000" font-family="sans-serif" font-size="14" lengthAdjust="spacing" textLength="59" x="1114" y="2193.291">Example</text><line style="stroke:#00CED1;stroke-width:2.0;" x1="1069.5" x2="1188.5" y1="2204" y2="2204"/><text fill="#000000" font-family="sans-serif" font-size="14" lengthAdjust="spacing" textLength="109" x="1074.5" y="2221.5352">mime type : Any</text><line style="stroke:#00CED1;stroke-width:2.0;" x1="1069.5" x2="1188.5" y1="2228.4883" y2="2228.4883"/></g><!--class Header--><g id="elem_Header"><rect codeLine="186" fill="#F1F1F1" height="64.4883" id="Header" rx="2.5" ry="2.5" style="stroke:#9400D3;stroke-width:2.0;" width="81" x="1248.5" y="2381.5"/><ellipse cx="1263.5" cy="2397.5" fill="#ADD1B2" rx="11" ry="11" style="stroke:#181818;stroke-width:1.0;"/><path d="M1265.9731,2403.6431 Q1265.3921,2403.9419 1264.7529,2404.0913 Q1264.1138,2404.2407 1263.4082,2404.2407 Q1260.9014,2404.2407 1259.5815,2402.5889 Q1258.2617,2400.937 1258.2617,2397.8159 Q1258.2617,2394.6865 1259.5815,2393.0347 Q1260.9014,2391.3828 1263.4082,2391.3828 Q1264.1138,2391.3828 1264.7612,2391.5322 Q1265.4087,2391.6816 1265.9731,2391.9805 L1265.9731,2394.7031 Q1265.3423,2394.1221 1264.7488,2393.8523 Q1264.1553,2393.5825 1263.5244,2393.5825 Q1262.1797,2393.5825 1261.4949,2394.6492 Q1260.8101,2395.7158 1260.8101,2397.8159 Q1260.8101,2399.9077 1261.4949,2400.9744 Q1262.1797,2402.041 1263.5244,2402.041 Q1264.1553,2402.041 1264.7488,2401.7712 Q1265.3423,2401.5015 1265.9731,2400.9204 Z " fill="#000000"/><text fill="#000000" font-family="sans-serif" font-size="14" lengthAdjust="spacing" textLength="49" x="1277.5" y="2402.791">Header</text><line style="stroke:#9400D3;stroke-width:2.0;" x1="1249.5" x2="1328.5" y1="2413.5" y2="2413.5"/><text fill="#000000" font-family="sans-serif" font-size="14" lengthAdjust="spacing" textLength="64" x="1254.5" y="2431.0352">^x- : Any</text><line style="stroke:#9400D3;stroke-width:2.0;" x1="1249.5" x2="1328.5" y1="2437.9883" y2="2437.9883"/></g><!--class Reference--><g id="elem_Reference"><rect codeLine="198" fill="#F1F1F1" height="64.4883" id="Reference" rx="2.5" ry="2.5" style="stroke:#00BFFF;stroke-width:2.0;" width="100" x="871" y="128"/><ellipse cx="886" cy="144" fill="#ADD1B2" rx="11" ry="11" style="stroke:#181818;stroke-width:1.0;"/><path d="M888.4731,150.1431 Q887.8921,150.4419 887.2529,150.5913 Q886.6138,150.7407 885.9082,150.7407 Q883.4014,150.7407 882.0815,149.0889 Q880.7617,147.437 880.7617,144.3159 Q880.7617,141.1865 882.0815,139.5347 Q883.4014,137.8828 885.9082,137.8828 Q886.6138,137.8828 887.2612,138.0322 Q887.9087,138.1816 888.4731,138.4805 L888.4731,141.2031 Q887.8423,140.6221 887.2488,140.3523 Q886.6553,140.0825 886.0244,140.0825 Q884.6797,140.0825 883.9949,141.1492 Q883.3101,142.2158 883.3101,144.3159 Q883.3101,146.4077 883.9949,147.4744 Q884.6797,148.541 886.0244,148.541 Q886.6553,148.541 887.2488,148.2712 Q887.8423,148.0015 888.4731,147.4204 Z " fill="#000000"/><text fill="#000000" font-family="sans-serif" font-size="14" lengthAdjust="spacing" textLength="68" x="900" y="149.291">Reference</text><line style="stroke:#00BFFF;stroke-width:2.0;" x1="872" x2="970" y1="160" y2="160"/><text fill="#000000" font-family="sans-serif" font-size="14" lengthAdjust="spacing" textLength="80" x="877" y="177.5352">$ref : string</text><line style="stroke:#00BFFF;stroke-width:2.0;" x1="872" x2="970" y1="184.4883" y2="184.4883"/></g><!--class XML--><g id="elem_XML"><rect codeLine="213" fill="#F1F1F1" height="146.9297" id="XML" rx="2.5" ry="2.5" style="stroke:#228B22;stroke-width:2.0;" width="141" x="583.5" y="2340"/><ellipse cx="635.75" cy="2356" fill="#ADD1B2" rx="11" ry="11" style="stroke:#181818;stroke-width:1.0;"/><path d="M638.2231,2362.1431 Q637.6421,2362.4419 637.0029,2362.5913 Q636.3638,2362.7407 635.6582,2362.7407 Q633.1514,2362.7407 631.8315,2361.0889 Q630.5117,2359.437 630.5117,2356.3159 Q630.5117,2353.1865 631.8315,2351.5347 Q633.1514,2349.8828 635.6582,2349.8828 Q636.3638,2349.8828 637.0112,2350.0322 Q637.6587,2350.1816 638.2231,2350.4805 L638.2231,2353.2031 Q637.5923,2352.6221 636.9988,2352.3523 Q636.4053,2352.0825 635.7744,2352.0825 Q634.4297,2352.0825 633.7449,2353.1492 Q633.0601,2354.2158 633.0601,2356.3159 Q633.0601,2358.4077 633.7449,2359.4744 Q634.4297,2360.541 635.7744,2360.541 Q636.4053,2360.541 636.9988,2360.2712 Q637.5923,2360.0015 638.2231,2359.4204 Z " fill="#000000"/><text fill="#000000" font-family="sans-serif" font-size="14" lengthAdjust="spacing" textLength="28" x="656.25" y="2361.291">XML</text><line style="stroke:#228B22;stroke-width:2.0;" x1="584.5" x2="723.5" y1="2372" y2="2372"/><text fill="#000000" font-family="sans-serif" font-size="14" lengthAdjust="spacing" textLength="90" x="589.5" y="2389.5352">name : string</text><text fill="#000000" font-family="sans-serif" font-size="14" lengthAdjust="spacing" textLength="129" x="589.5" y="2406.0234">namespace : string</text><text fill="#000000" font-family="sans-serif" font-size="14" lengthAdjust="spacing" textLength="93" x="589.5" y="2422.5117">prefix : string</text><text fill="#000000" font-family="sans-serif" font-size="14" lengthAdjust="spacing" textLength="127" x="589.5" y="2439">attribute : boolean</text><text fill="#000000" font-family="sans-serif" font-size="14" lengthAdjust="spacing" textLength="128" x="589.5" y="2455.4883">wrapped : boolean</text><text fill="#000000" font-family="sans-serif" font-size="14" lengthAdjust="spacing" textLength="64" x="589.5" y="2471.9766">^x- : Any</text><line style="stroke:#228B22;stroke-width:2.0;" x1="584.5" x2="723.5" y1="2478.9297" y2="2478.9297"/></g><!--class Security Scheme--><g id="elem_Security Scheme"><rect codeLine="242" fill="#F1F1F1" height="196.3945" id="Security Scheme" rx="2.5" ry="2.5" style="stroke:#CD5C5C;stroke-width:2.0;" width="177" x="599.5" y="616.5"/><ellipse cx="629.8" cy="632.5" fill="#ADD1B2" rx="11" ry="11" style="stroke:#181818;stroke-width:1.0;"/><path d="M632.2731,638.6431 Q631.6921,638.9419 631.0529,639.0913 Q630.4138,639.2407 629.7082,639.2407 Q627.2014,639.2407 625.8815,637.5889 Q624.5617,635.937 624.5617,632.8159 Q624.5617,629.6865 625.8815,628.0347 Q627.2014,626.3828 629.7082,626.3828 Q630.4138,626.3828 631.0612,626.5322 Q631.7087,626.6816 632.2731,626.9805 L632.2731,629.7031 Q631.6423,629.1221 631.0488,628.8523 Q630.4553,628.5825 629.8244,628.5825 Q628.4797,628.5825 627.7949,629.6492 Q627.1101,630.7158 627.1101,632.8159 Q627.1101,634.9077 627.7949,635.9744 Q628.4797,637.041 629.8244,637.041 Q630.4553,637.041 631.0488,636.7712 Q631.6423,636.5015 632.2731,635.9204 Z " fill="#000000"/><text fill="#000000" font-family="sans-serif" font-size="14" lengthAdjust="spacing" textLength="111" x="647.2" y="637.791">Security Scheme</text><line style="stroke:#CD5C5C;stroke-width:2.0;" x1="600.5" x2="775.5" y1="648.5" y2="648.5"/><text fill="#000000" font-family="sans-serif" font-size="14" lengthAdjust="spacing" textLength="81" x="605.5" y="666.0352">type : string</text><text fill="#000000" font-family="sans-serif" font-size="14" lengthAdjust="spacing" textLength="129" x="605.5" y="682.5234">description : string</text><text fill="#000000" font-family="sans-serif" font-size="14" lengthAdjust="spacing" textLength="90" x="605.5" y="699.0117">name : string</text><text fill="#000000" font-family="sans-serif" font-size="14" lengthAdjust="spacing" textLength="65" x="605.5" y="715.5">in : string</text><text fill="#000000" font-family="sans-serif" font-size="14" lengthAdjust="spacing" textLength="81" x="605.5" y="731.9883">flow : string</text><text fill="#000000" font-family="sans-serif" font-size="14" lengthAdjust="spacing" textLength="165" x="605.5" y="748.4766">authorizationUrl : string</text><text fill="#000000" font-family="sans-serif" font-size="14" lengthAdjust="spacing" textLength="111" x="605.5" y="764.9648">tokenUrl : string</text><text fill="#000000" font-family="sans-serif" font-size="14" lengthAdjust="spacing" textLength="107" x="605.5" y="781.4531">scopes : Scopes</text><text fill="#000000" font-family="sans-serif" font-size="14" lengthAdjust="spacing" textLength="64" x="605.5" y="797.9414">^x- : Any</text><line style="stroke:#CD5C5C;stroke-width:2.0;" x1="600.5" x2="775.5" y1="804.8945" y2="804.8945"/></g><!--class Scopes--><g id="elem_Scopes"><rect codeLine="255" fill="#F1F1F1" height="64.4883" id="Scopes" rx="2.5" ry="2.5" style="stroke:#ADD8E6;stroke-width:2.0;" width="102" x="639" y="983"/><ellipse cx="663.9" cy="999" fill="#ADD1B2" rx="11" ry="11" style="stroke:#181818;stroke-width:1.0;"/><path d="M666.3731,1005.1431 Q665.7921,1005.4419 665.1529,1005.5913 Q664.5138,1005.7407 663.8082,1005.7407 Q661.3014,1005.7407 659.9815,1004.0889 Q658.6617,1002.437 658.6617,999.3159 Q658.6617,996.1865 659.9815,994.5347 Q661.3014,992.8828 663.8082,992.8828 Q664.5138,992.8828 665.1612,993.0322 Q665.8087,993.1816 666.3731,993.4805 L666.3731,996.2031 Q665.7423,995.6221 665.1488,995.3523 Q664.5553,995.0825 663.9244,995.0825 Q662.5797,995.0825 661.8949,996.1492 Q661.2101,997.2158 661.2101,999.3159 Q661.2101,1001.4077 661.8949,1002.4744 Q662.5797,1003.541 663.9244,1003.541 Q664.5553,1003.541 665.1488,1003.2712 Q665.7423,1003.0015 666.3731,1002.4204 Z " fill="#000000"/><text fill="#000000" font-family="sans-serif" font-size="14" lengthAdjust="spacing" textLength="48" x="680.1" y="1004.291">Scopes</text><line style="stroke:#ADD8E6;stroke-width:2.0;" x1="640" x2="740" y1="1015" y2="1015"/><text fill="#000000" font-family="sans-serif" font-size="14" lengthAdjust="spacing" textLength="90" x="645" y="1032.5352">name : string</text><line style="stroke:#ADD8E6;stroke-width:2.0;" x1="640" x2="740" y1="1039.4883" y2="1039.4883"/></g><!--link Swagger to Info--><g id="link_Swagger_Info"><path codeLine="19" d="M841.3812,72.4261 C841.3812,72.4261 818.29,281.46 854,317 C953.51,416.06 1351.27,328.39 1483,377 C1487.97,378.83 1492.92,380.93 1497.83,383.23 " fill="none" id="Swagger-Info" style="stroke:#0000FF;stroke-width:1.0;"/><polygon fill="#0000FF" points="830.39,67.61,834.2802,73.6817,841.3812,72.4261,837.4909,66.3543,830.39,67.61" style="stroke:#0000FF;stroke-width:1.0;"/><polygon fill="#0000FF" points="1509.34,389.07,1503.1277,381.4275,1504.8822,386.8054,1499.5044,388.5599,1509.34,389.07" style="stroke:#0000FF;stroke-width:1.0;"/><line style="stroke:#0000FF;stroke-width:1.0;" x1="1504.8822" x2="1497.75" y1="386.8054" y2="383.185"/></g><!--link Swagger to Paths--><g id="link_Swagger_Paths"><path codeLine="20" d="M840.4649,172.1458 C840.4649,172.1458 844.88,289.45 854,317 C864.06,347.39 879.87,379.23 894.3,405.17 " fill="none" id="Swagger-Paths" style="stroke:#6495ED;stroke-width:1.0;"/><polygon fill="#6495ED" points="830.28,165.8,833.2572,172.3678,840.4649,172.1458,837.4877,165.5779,830.28,165.8" style="stroke:#6495ED;stroke-width:1.0;"/><polygon fill="#6495ED" points="900.71,416.46,899.7511,406.6579,898.2441,412.1104,892.7917,410.6034,900.71,416.46" style="stroke:#6495ED;stroke-width:1.0;"/><line style="stroke:#6495ED;stroke-width:1.0;" x1="898.2441" x2="894.29" y1="412.1104" y2="405.155"/></g><!--link Swagger to Definitions--><g id="link_Swagger_Definitions"><path codeLine="21" d="M530.5881,182.6311 C530.5881,182.6311 441.84,791.22 461.15,964.65 " fill="none" id="Swagger-Definitions" style="stroke:#FF00FF;stroke-width:1.0;"/><polygon fill="#FF00FF" points="542.5,181.18,536.0603,177.9349,530.5881,182.6311,537.0277,185.8762,542.5,181.18" style="stroke:#FF00FF;stroke-width:1.0;"/><polygon fill="#FF00FF" points="462.61,977.5,465.5757,968.1083,462.0494,972.5315,457.6261,969.0052,462.61,977.5" style="stroke:#FF00FF;stroke-width:1.0;"/><line style="stroke:#FF00FF;stroke-width:1.0;" x1="462.0494" x2="461.14" y1="972.5315" y2="964.58"/></g><!--link Swagger to Parameters Definitions--><g id="link_Swagger_Parameters Definitions"><path codeLine="22" d="M842.2734,199.5596 C842.2734,199.5596 822.31,280.26 854,317 C904.42,375.46 959.25,325.77 1017,377 C1201.27,540.45 1272.61,846.04 1294.17,964.92 " fill="none" id="Swagger-Parameters Definitions" style="stroke:#FFD700;stroke-width:1.0;"/><polygon fill="#FFD700" points="830.49,197.29,835.6252,202.3526,842.2734,199.5596,837.1382,194.497,830.49,197.29" style="stroke:#FFD700;stroke-width:1.0;"/><polygon fill="#FFD700" points="1296.4,977.63,1298.7866,968.0747,1295.537,972.705,1290.9067,969.4554,1296.4,977.63" style="stroke:#FFD700;stroke-width:1.0;"/><line style="stroke:#FFD700;stroke-width:1.0;" x1="1295.537" x2="1294.15" y1="972.705" y2="964.825"/></g><!--link Swagger to Responses Definitions--><g id="link_Swagger_Responses Definitions"><path codeLine="23" d="M842.114,216.2711 C842.114,216.2711 824.78,287.92 854,317 C936.53,399.13 1014.53,308.95 1109,377 C1323.07,531.2 1335.24,632.5 1421,882 C1481.69,1058.56 1484.79,1284.13 1482.78,1382.24 " fill="none" id="Swagger-Responses Definitions" style="stroke:#ADFF2F;stroke-width:1.0;"/><polygon fill="#ADFF2F" points="830.47,213.37,835.325,218.7019,842.114,216.2711,837.2591,210.9392,830.47,213.37" style="stroke:#ADFF2F;stroke-width:1.0;"/><polygon fill="#ADFF2F" points="1482.47,1395.08,1486.6864,1386.1793,1482.5908,1390.0815,1478.6887,1385.986,1482.47,1395.08" style="stroke:#ADFF2F;stroke-width:1.0;"/><line style="stroke:#ADFF2F;stroke-width:1.0;" x1="1482.5908" x2="1482.78" y1="1390.0815" y2="1382.08"/></g><!--link Swagger to Security Definitions--><g id="link_Swagger_Security Definitions"><path codeLine="24" d="M842.0976,232.3362 C842.0976,232.3362 840.67,286.53 828,317 C811.52,356.64 778.37,391.29 748.34,416.61 " fill="none" id="Swagger-Security Definitions" style="stroke:#FF69B4;stroke-width:1.0;"/><polygon fill="#FF69B4" points="830.47,229.37,835.2951,234.729,842.0976,232.3362,837.2726,226.9772,830.47,229.37" style="stroke:#FF69B4;stroke-width:1.0;"/><polygon fill="#FF69B4" points="738.63,424.55,748.1286,421.9467,742.4998,421.3838,743.0627,415.755,738.63,424.55" style="stroke:#FF69B4;stroke-width:1.0;"/><line style="stroke:#FF69B4;stroke-width:1.0;" x1="742.4998" x2="748.7" y1="421.3838" y2="416.32"/></g><!--link Swagger to Security Requirement--><g id="link_Swagger_Security Requirement"><path codeLine="25" d="M535.2127,255.2629 C535.2127,255.2629 583.05,1181.45 605.01,1385.65 " fill="none" id="Swagger-Security Requirement" style="stroke:#F08080;stroke-width:1.0;"/><polygon fill="#F08080" points="543.02,246.15,536.0787,248.104,535.2127,255.2629,542.154,253.3089,543.02,246.15" style="stroke:#F08080;stroke-width:1.0;"/><polygon fill="#F08080" points="606.4,1398.56,609.4078,1389.1817,605.8617,1393.5891,601.4543,1390.0429,606.4,1398.56" style="stroke:#F08080;stroke-width:1.0;"/><line style="stroke:#F08080;stroke-width:1.0;" x1="605.8617" x2="605.005" y1="1393.5891" y2="1385.64"/></g><!--link Swagger to Tag--><g id="link_Swagger_Tag"><path codeLine="26" d="M530.4914,261.2046 C530.4914,261.2046 212,468.61 212,713 C212,713 212,713 212,1016 C212,1314.32 174,1668.26 156.11,1818.38 " fill="none" id="Swagger-Tag" style="stroke:#FF1493;stroke-width:1.0;"/><polygon fill="#FF1493" points="542.49,261.02,536.4292,257.1128,530.4914,261.2046,536.5522,265.1118,542.49,261.02" style="stroke:#FF1493;stroke-width:1.0;"/><polygon fill="#FF1493" points="154.57,1831.19,159.6105,1822.7287,155.1638,1826.2254,151.6671,1821.7787,154.57,1831.19" style="stroke:#FF1493;stroke-width:1.0;"/><line style="stroke:#FF1493;stroke-width:1.0;" x1="155.1638" x2="156.125" y1="1826.2254" y2="1818.28"/></g><!--link Swagger to External Documentation--><g id="link_Swagger_External Documentation"><path codeLine="27" d="M530.5016,277.5975 C530.5016,277.5975 348,700.76 348,713 C348,713 348,713 348,1893.5 C348,2059.28 374.09,2253.42 388.95,2350.54 " fill="none" id="Swagger-External Documentation" style="stroke:#8B008B;stroke-width:1.0;"/><polygon fill="#8B008B" points="542.49,277.07,536.32,273.3376,530.5016,277.5975,536.6716,281.3299,542.49,277.07" style="stroke:#8B008B;stroke-width:1.0;"/><polygon fill="#8B008B" points="390.91,2363.22,393.4775,2353.7117,390.1406,2358.2795,385.5728,2354.9427,390.91,2363.22" style="stroke:#8B008B;stroke-width:1.0;"/><line style="stroke:#8B008B;stroke-width:1.0;" x1="390.1406" x2="388.925" y1="2358.2795" y2="2350.37"/></g><!--link Info to Contact--><g id="link_Info_Contact"><path codeLine="38" d="M1700.4243,476.0154 C1700.4243,476.0154 1748.37,577.8 1736.09,642.88 " fill="none" id="Info-Contact" style="stroke:#5F9EA0;stroke-width:1.0;"/><polygon fill="#5F9EA0" points="1688.5,474.67,1694.0137,479.3175,1700.4243,476.0154,1694.9106,471.3679,1688.5,474.67" style="stroke:#5F9EA0;stroke-width:1.0;"/><polygon fill="#5F9EA0" points="1733.61,655.3,1739.2922,647.2556,1734.5874,650.3965,1731.4465,645.6917,1733.61,655.3" style="stroke:#5F9EA0;stroke-width:1.0;"/><line style="stroke:#5F9EA0;stroke-width:1.0;" x1="1734.5874" x2="1736.155" y1="650.3965" y2="642.55"/></g><!--link Info to License--><g id="link_Info_License"><path codeLine="39" d="M1504.5995,492.2319 C1504.5995,492.2319 1502.98,592.59 1541.17,653.15 " fill="none" id="Info-License" style="stroke:#FF7F50;stroke-width:1.0;"/><polygon fill="#FF7F50" points="1516.5,490.69,1510.0358,487.4941,1504.5995,492.2319,1511.0637,495.4278,1516.5,490.69" style="stroke:#FF7F50;stroke-width:1.0;"/><polygon fill="#FF7F50" points="1548.12,663.99,1546.6218,654.2558,1545.4179,659.783,1539.8906,658.5792,1548.12,663.99" style="stroke:#FF7F50;stroke-width:1.0;"/><line style="stroke:#FF7F50;stroke-width:1.0;" x1="1545.4179" x2="1541.11" y1="659.783" y2="653.05"/></g><!--link Paths to Path Item--><g id="link_Paths_Path Item"><path codeLine="58" d="M1005.4199,467.0545 C1005.4199,467.0545 1039.08,535.54 1020.37,592.57 " fill="none" id="Paths-Path Item" style="stroke:#008B8B;stroke-width:1.0;"/><polygon fill="#008B8B" points="993.5,465.67,998.9984,470.3355,1005.4199,467.0545,999.9214,462.389,993.5,465.67" style="stroke:#008B8B;stroke-width:1.0;"/><polygon fill="#008B8B" points="1016.17,604.81,1022.8712,597.5924,1017.7906,600.0799,1015.3031,594.9994,1016.17,604.81" style="stroke:#008B8B;stroke-width:1.0;"/><line style="stroke:#008B8B;stroke-width:1.0;" x1="1017.7906" x2="1020.385" y1="600.0799" y2="592.515"/></g><!--link Path Item to Operation--><g id="link_Path Item_Operation"><path codeLine="72" d="M815.8102,677.5732 C815.8102,677.5732 820.16,794.6 828,822 C832.56,837.94 838.85,853.87 846.17,869.35 " fill="none" id="Path Item-Operation" style="stroke:#006400;stroke-width:1.0;"/><polygon fill="#006400" points="825.75,670.85,818.5391,670.8983,815.8102,677.5732,823.0212,677.5248,825.75,670.85" style="stroke:#006400;stroke-width:1.0;"/><polygon fill="#006400" points="851.87,880.88,851.4663,871.0394,849.6538,876.398,844.2952,874.5854,851.87,880.88" style="stroke:#006400;stroke-width:1.0;"/><line style="stroke:#006400;stroke-width:1.0;" x1="849.6538" x2="846.105" y1="876.398" y2="869.225"/></g><!--link Path Item to Operation--><g id="link_Path Item_Operation"><path codeLine="73" d="M816.3591,694.3246 C816.3591,694.3246 821.13,798.05 828,822 C832.57,837.94 838.86,853.86 846.18,869.34 " fill="none" id="Path Item-Operation-1" style="stroke:#006400;stroke-width:1.0;"/><polygon fill="#006400" points="825.81,686.93,818.6197,687.477,816.3591,694.3246,823.5494,693.7776,825.81,686.93" style="stroke:#006400;stroke-width:1.0;"/><polygon fill="#006400" points="851.88,880.87,851.4714,871.0296,849.6615,876.3891,844.302,874.5792,851.88,880.87" style="stroke:#006400;stroke-width:1.0;"/><line style="stroke:#006400;stroke-width:1.0;" x1="849.6615" x2="846.12" y1="876.3891" y2="869.22"/></g><!--link Path Item to Operation--><g id="link_Path Item_Operation"><path codeLine="74" d="M816.942,711.0281 C816.942,711.0281 822.08,801.37 828,822 C832.58,837.94 838.87,853.86 846.19,869.34 " fill="none" id="Path Item-Operation-2" style="stroke:#006400;stroke-width:1.0;"/><polygon fill="#006400" points="825.87,703.01,818.7333,704.043,816.942,711.0281,824.0787,709.9951,825.87,703.01" style="stroke:#006400;stroke-width:1.0;"/><polygon fill="#006400" points="851.9,880.87,851.4963,871.0294,849.6838,876.388,844.3252,874.5754,851.9,880.87" style="stroke:#006400;stroke-width:1.0;"/><line style="stroke:#006400;stroke-width:1.0;" x1="849.6838" x2="846.135" y1="876.388" y2="869.215"/></g><!--link Path Item to Operation--><g id="link_Path Item_Operation"><path codeLine="75" d="M813.752,720.6483 C813.752,720.6483 816.86,783.31 828,822 C832.59,837.94 838.89,853.86 846.22,869.33 " fill="none" id="Path Item-Operation-3" style="stroke:#006400;stroke-width:1.0;"/><polygon fill="#006400" points="825.52,718.3,818.8532,715.5515,813.752,720.6483,820.4188,723.3968,825.52,718.3" style="stroke:#006400;stroke-width:1.0;"/><polygon fill="#006400" points="851.92,880.86,851.5066,871.0198,849.6993,876.3802,844.339,874.5729,851.92,880.86" style="stroke:#006400;stroke-width:1.0;"/><line style="stroke:#006400;stroke-width:1.0;" x1="849.6993" x2="846.155" y1="876.3802" y2="869.21"/></g><!--link Path Item to Operation--><g id="link_Path Item_Operation"><path codeLine="76" d="M813.8953,737.3083 C813.8953,737.3083 818.84,790.29 828,822 C832.6,837.93 838.91,853.85 846.25,869.32 " fill="none" id="Path Item-Operation-4" style="stroke:#006400;stroke-width:1.0;"/><polygon fill="#006400" points="825.53,734.37,818.7332,731.9609,813.8953,737.3083,820.6921,739.7174,825.53,734.37" style="stroke:#006400;stroke-width:1.0;"/><polygon fill="#006400" points="851.96,880.85,851.5466,871.0098,849.7393,876.3702,844.379,874.5629,851.96,880.85" style="stroke:#006400;stroke-width:1.0;"/><line style="stroke:#006400;stroke-width:1.0;" x1="849.7393" x2="846.185" y1="876.3702" y2="869.2"/></g><!--link Path Item to Operation--><g id="link_Path Item_Operation"><path codeLine="77" d="M814.3419,754.7377 C814.3419,754.7377 820.96,797.75 828,822 C832.62,837.93 838.95,853.84 846.29,869.31 " fill="none" id="Path Item-Operation-5" style="stroke:#006400;stroke-width:1.0;"/><polygon fill="#006400" points="825.58,750.53,818.5584,748.8878,814.3419,754.7377,821.3635,756.3799,825.58,750.53" style="stroke:#006400;stroke-width:1.0;"/><polygon fill="#006400" points="852,880.84,851.5866,870.9998,849.7793,876.3602,844.419,874.5529,852,880.84" style="stroke:#006400;stroke-width:1.0;"/><line style="stroke:#006400;stroke-width:1.0;" x1="849.7793" x2="846.225" y1="876.3602" y2="869.19"/></g><!--link Path Item to Operation--><g id="link_Path Item_Operation"><path codeLine="78" d="M815.8369,773.6125 C815.8369,773.6125 828,828.45 851.64,869.72 " fill="none" id="Path Item-Operation-6" style="stroke:#006400;stroke-width:1.0;"/><polygon fill="#006400" points="825.75,766.85,818.5393,766.9269,815.8369,773.6125,823.0476,773.5356,825.75,766.85" style="stroke:#006400;stroke-width:1.0;"/><polygon fill="#006400" points="858.04,880.7,856.9649,870.91,855.5227,876.3799,850.0528,874.9377,858.04,880.7" style="stroke:#006400;stroke-width:1.0;"/><line style="stroke:#006400;stroke-width:1.0;" x1="855.5227" x2="851.5" y1="876.3799" y2="869.47"/></g><!--link Path Item to Parameter--><g id="link_Path Item_Parameter"><path codeLine="79" d="M1122.3077,784.3439 C1122.3077,784.3439 1215.77,903.18 1112,1148 C1097.04,1183.31 1073.69,1177.85 1050,1208 C1046.92,1211.92 1043.86,1215.92 1040.83,1219.99 " fill="none" id="Path Item-Parameter" style="stroke:#FF8C00;stroke-width:1.0;"/><polygon fill="#FF8C00" points="1110.49,782.26,1115.7042,787.2412,1122.3077,784.3439,1117.0935,779.3627,1110.49,782.26" style="stroke:#FF8C00;stroke-width:1.0;"/><polygon fill="#FF8C00" points="1033.24,1230.38,1041.7749,1225.4651,1036.1861,1226.3401,1035.3111,1220.7514,1033.24,1230.38" style="stroke:#FF8C00;stroke-width:1.0;"/><line style="stroke:#FF8C00;stroke-width:1.0;" x1="1036.1861" x2="1040.905" y1="1226.3401" y2="1219.88"/></g><!--link Operation to External Documentation--><g id="link_Operation_External Documentation"><path codeLine="96" d="M796.5846,989.5671 C796.5846,989.5671 728.09,1623.79 717,1657 C707.29,1686.07 697.13,1689.8 683,1717 C589.77,1896.4 561.7,1939.73 488,2128 C458.51,2203.35 431.84,2292.79 415.55,2351 " fill="none" id="Operation-External Documentation" style="stroke:#8B008B;stroke-width:1.0;"/><polygon fill="#8B008B" points="804.06,980.18,797.1932,982.3818,796.5846,989.5671,803.4513,987.3654,804.06,980.18" style="stroke:#8B008B;stroke-width:1.0;"/><polygon fill="#8B008B" points="412.14,2363.27,418.3979,2355.6649,413.4751,2358.4515,410.6884,2353.5287,412.14,2363.27" style="stroke:#8B008B;stroke-width:1.0;"/><line style="stroke:#8B008B;stroke-width:1.0;" x1="413.4751" x2="415.615" y1="2358.4515" y2="2350.745"/></g><!--link Operation to Parameter--><g id="link_Operation_Parameter"><path codeLine="97" d="M792.151,1048.1895 C792.151,1048.1895 786.16,1126.07 811.51,1194.7 " fill="none" id="Operation-Parameter" style="stroke:#FF8C00;stroke-width:1.0;"/><polygon fill="#FF8C00" points="803.56,1044.47,796.6157,1042.5267,792.151,1048.1895,799.0953,1050.1327,803.56,1044.47" style="stroke:#FF8C00;stroke-width:1.0;"/><polygon fill="#FF8C00" points="816.01,1206.64,816.58,1196.8077,814.2472,1201.9611,809.0937,1199.6282,816.01,1206.64" style="stroke:#FF8C00;stroke-width:1.0;"/><line style="stroke:#FF8C00;stroke-width:1.0;" x1="814.2472" x2="811.43" y1="1201.9611" y2="1194.475"/></g><!--link Operation to Responses--><g id="link_Operation_Responses"><path codeLine="98" d="M1100.1458,1063.1205 C1100.1458,1063.1205 1186.54,1267.93 1199.53,1366.41 " fill="none" id="Operation-Responses" style="stroke:#E9967A;stroke-width:1.0;"/><polygon fill="#E9967A" points="1088.47,1060.35,1093.3844,1065.6272,1100.1458,1063.1205,1095.2314,1057.8433,1088.47,1060.35" style="stroke:#E9967A;stroke-width:1.0;"/><polygon fill="#E9967A" points="1201.17,1379.12,1203.9894,1369.6833,1200.5322,1374.1608,1196.0547,1370.7037,1201.17,1379.12" style="stroke:#E9967A;stroke-width:1.0;"/><line style="stroke:#E9967A;stroke-width:1.0;" x1="1200.5322" x2="1199.51" y1="1374.1608" y2="1366.23"/></g><!--link Operation to Security Requirement--><g id="link_Operation_Security Requirement"><path codeLine="99" d="M792.3029,1112.622 C792.3029,1112.622 739.03,1187.84 726,1208 C687.64,1267.36 651.47,1340.88 630.02,1387 " fill="none" id="Operation-Security Requirement" style="stroke:#F08080;stroke-width:1.0;"/><polygon fill="#F08080" points="803.58,1108.52,796.5741,1106.8119,792.3029,1112.622,799.3088,1114.33,803.58,1108.52" style="stroke:#F08080;stroke-width:1.0;"/><polygon fill="#F08080" points="624.62,1398.73,632.0219,1392.2329,626.7142,1394.1897,624.7574,1388.8821,624.62,1398.73" style="stroke:#F08080;stroke-width:1.0;"/><line style="stroke:#F08080;stroke-width:1.0;" x1="626.7142" x2="630.06" y1="1394.1897" y2="1386.925"/></g><!--link Parameter to Schema--><g id="link_Parameter_Schema"><path codeLine="133" d="M803.021,1330.6144 C803.021,1330.6144 783.45,1623.99 778,1657 C751.14,1819.69 705.43,2006.51 677.65,2114.05 " fill="none" id="Parameter-Schema" style="stroke:#B22222;stroke-width:1.0;"/><polygon fill="#B22222" points="811.88,1322.52,804.7524,1323.6142,803.021,1330.6144,810.1486,1329.5202,811.88,1322.52" style="stroke:#B22222;stroke-width:1.0;"/><polygon fill="#B22222" points="674.39,2126.58,680.5255,2118.8757,675.6479,2121.7408,672.7828,2116.8632,674.39,2126.58" style="stroke:#B22222;stroke-width:1.0;"/><line style="stroke:#B22222;stroke-width:1.0;" x1="675.6479" x2="677.655" y1="2121.7408" y2="2113.995"/></g><!--link Parameter to Items--><g id="link_Parameter_Items"><path codeLine="134" d="M1034.5589,1396.9575 C1034.5589,1396.9575 1030.52,1631.41 1025,1657 C1021.67,1672.43 1017.26,1688.07 1012.13,1703.58 " fill="none" id="Parameter-Items" style="stroke:#8B0000;stroke-width:1.0;"/><polygon fill="#8B0000" points="1026.96,1387.67,1027.6636,1394.8467,1034.5589,1396.9575,1033.8553,1389.7808,1026.96,1387.67" style="stroke:#8B0000;stroke-width:1.0;"/><polygon fill="#8B0000" points="1007.93,1715.73,1014.6488,1708.5287,1009.5622,1711.0039,1007.087,1705.9173,1007.93,1715.73" style="stroke:#8B0000;stroke-width:1.0;"/><line style="stroke:#8B0000;stroke-width:1.0;" x1="1009.5622" x2="1012.17" y1="1711.0039" y2="1703.445"/></g><!--link Items to Items--><g id="link_Items_Items"><path codeLine="156" d="M924.1207,1776.3311 C924.1207,1776.3311 937.31,1561.25 920.5,1561.25 C910.75,1561.25 906.28,1626 907.01,1702.91 " fill="none" id="Items-Items" style="stroke:#8B0000;stroke-width:1.0;"/><polygon fill="#8B0000" points="922.42,1788.21,927.23,1782.8375,924.1207,1776.3311,919.3108,1781.7037,922.42,1788.21" style="stroke:#8B0000;stroke-width:1.0;"/><polygon fill="#8B0000" points="907.19,1715.89,911.071,1706.838,907.1241,1710.8904,903.0717,1706.9435,907.19,1715.89" style="stroke:#8B0000;stroke-width:1.0;"/><line style="stroke:#8B0000;stroke-width:1.0;" x1="907.1241" x2="907.01" y1="1710.8904" y2="1702.89"/></g><!--link Responses to Response--><g id="link_Responses_Response"><path codeLine="163" d="M1348.5445,1438.9692 C1348.5445,1438.9692 1283.15,1695.42 1239.12,1811.34 " fill="none" id="Responses-Response" style="stroke:#8FBC8F;stroke-width:1.0;"/><polygon fill="#8FBC8F" points="1340.96,1429.67,1341.6525,1436.8478,1348.5445,1438.9692,1347.852,1431.7915,1340.96,1429.67" style="stroke:#8FBC8F;stroke-width:1.0;"/><polygon fill="#8FBC8F" points="1234.58,1823.26,1241.5233,1816.275,1236.3609,1818.5879,1234.0479,1813.4255,1234.58,1823.26" style="stroke:#8FBC8F;stroke-width:1.0;"/><line style="stroke:#8FBC8F;stroke-width:1.0;" x1="1236.3609" x2="1239.21" y1="1818.5879" y2="1811.11"/></g><!--link Responses to Response--><g id="link_Responses_Response"><path codeLine="164" d="M1348.1626,1455.2703 C1348.1626,1455.2703 1283.46,1699.67 1239.92,1811.38 " fill="none" id="Responses-Response-1" style="stroke:#8FBC8F;stroke-width:1.0;"/><polygon fill="#8FBC8F" points="1340.91,1445.71,1341.3496,1452.9077,1348.1626,1455.2703,1347.7231,1448.0726,1340.91,1445.71" style="stroke:#8FBC8F;stroke-width:1.0;"/><polygon fill="#8FBC8F" points="1235.31,1823.17,1242.3115,1816.2433,1237.1299,1818.513,1234.8602,1813.3314,1235.31,1823.17" style="stroke:#8FBC8F;stroke-width:1.0;"/><line style="stroke:#8FBC8F;stroke-width:1.0;" x1="1237.1299" x2="1240.045" y1="1818.513" y2="1811.065"/></g><!--link Response to Schema--><g id="link_Response_Schema"><path codeLine="173" d="M1119.5376,1889.7074 C1119.5376,1889.7074 1112.12,2012.74 1051,2068 C986.05,2126.72 894.49,2160.06 815.67,2178.91 " fill="none" id="Response-Schema" style="stroke:#B22222;stroke-width:1.0;"/><polygon fill="#B22222" points="1131.49,1888.64,1125.158,1885.1896,1119.5376,1889.7074,1125.8696,1893.1579,1131.49,1888.64" style="stroke:#B22222;stroke-width:1.0;"/><polygon fill="#B22222" points="803.09,2181.81,812.7576,2183.691,807.9628,2180.6893,810.9645,2175.8945,803.09,2181.81" style="stroke:#B22222;stroke-width:1.0;"/><line style="stroke:#B22222;stroke-width:1.0;" x1="807.9628" x2="815.76" y1="2180.6893" y2="2178.895"/></g><!--link Response to Headers--><g id="link_Response_Headers"><path codeLine="174" d="M1297.4588,1905.7478 C1297.4588,1905.7478 1335.08,2074.51 1306.67,2154.58 " fill="none" id="Response-Headers" style="stroke:#483D8B;stroke-width:1.0;"/><polygon fill="#483D8B" points="1285.51,1904.64,1291.1151,1909.1768,1297.4588,1905.7478,1291.8537,1901.211,1285.51,1904.64" style="stroke:#483D8B;stroke-width:1.0;"/><polygon fill="#483D8B" points="1302.25,2166.75,1309.0782,2159.6524,1303.9543,2162.0494,1301.5573,2156.9255,1302.25,2166.75" style="stroke:#483D8B;stroke-width:1.0;"/><line style="stroke:#483D8B;stroke-width:1.0;" x1="1303.9543" x2="1306.685" y1="2162.0494" y2="2154.53"/></g><!--link Response to Example--><g id="link_Response_Example"><path codeLine="175" d="M1119.5449,1921.787 C1119.5449,1921.787 1085.05,2083.2 1111.84,2158.5 " fill="none" id="Response-Example" style="stroke:#00CED1;stroke-width:1.0;"/><polygon fill="#00CED1" points="1131.49,1920.64,1125.1351,1917.2318,1119.5449,1921.787,1125.8998,1925.1952,1131.49,1920.64" style="stroke:#00CED1;stroke-width:1.0;"/><polygon fill="#00CED1" points="1116.12,2170.27,1116.7924,2160.4441,1114.406,2165.573,1109.2772,2163.1865,1116.12,2170.27" style="stroke:#00CED1;stroke-width:1.0;"/><line style="stroke:#00CED1;stroke-width:1.0;" x1="1114.406" x2="1111.675" y1="2165.573" y2="2158.05"/></g><!--link Headers to Header--><g id="link_Headers_Header"><path codeLine="180" d="M1358.3653,2218.023 C1358.3653,2218.023 1352.85,2316.58 1318.73,2369.33 " fill="none" id="Headers-Header" style="stroke:#9400D3;stroke-width:1.0;"/><polygon fill="#9400D3" points="1346.5,2216.23,1351.835,2221.0816,1358.3653,2218.023,1353.0303,2213.1714,1346.5,2216.23" style="stroke:#9400D3;stroke-width:1.0;"/><polygon fill="#9400D3" points="1311.64,2380.1,1319.9282,2374.7797,1314.3881,2375.9229,1313.2449,2370.3828,1311.64,2380.1" style="stroke:#9400D3;stroke-width:1.0;"/><line style="stroke:#9400D3;stroke-width:1.0;" x1="1314.3881" x2="1318.79" y1="2375.9229" y2="2369.24"/></g><!--link Tag to External Documentation--><g id="link_Tag_External Documentation"><path codeLine="196" d="M298.1076,1921.4625 C298.1076,1921.4625 310.78,2244.91 322,2280 C330.03,2305.12 343.38,2330.64 356.73,2352.5 " fill="none" id="Tag-External Documentation" style="stroke:#8B008B;stroke-width:1.0;"/><polygon fill="#8B008B" points="289.13,1913.5,290.9646,1920.4738,298.1076,1921.4625,296.273,1914.4887,289.13,1913.5" style="stroke:#8B008B;stroke-width:1.0;"/><polygon fill="#8B008B" points="363.52,2363.29,362.117,2353.5416,360.8591,2359.0568,355.3439,2357.799,363.52,2363.29" style="stroke:#8B008B;stroke-width:1.0;"/><line style="stroke:#8B008B;stroke-width:1.0;" x1="360.8591" x2="356.6" y1="2359.0568" y2="2352.29"/></g><!--link Schema to XML--><g id="link_Schema_XML"><path codeLine="210" d="M807.7369,2212.5293 C807.7369,2212.5293 804.25,2256.65 794,2280 C781.29,2308.97 758.88,2334.61 735.67,2355.43 " fill="none" id="Schema-XML" style="stroke:#228B22;stroke-width:1.0;"/><polygon fill="#228B22" points="796.43,2208.51,800.7436,2214.2886,807.7369,2212.5293,803.4232,2206.7507,796.43,2208.51" style="stroke:#228B22;stroke-width:1.0;"/><polygon fill="#228B22" points="726.12,2363.66,735.546,2360.8051,729.9042,2360.392,730.3173,2354.7503,726.12,2363.66" style="stroke:#228B22;stroke-width:1.0;"/><line style="stroke:#228B22;stroke-width:1.0;" x1="729.9042" x2="735.965" y1="2360.392" y2="2355.175"/></g><!--link Schema to External Documentation--><g id="link_Schema_External Documentation"><path codeLine="211" d="M505.3232,2235.1258 C505.3232,2235.1258 459.16,2310.9 434.39,2352.64 " fill="none" id="Schema-External Documentation" style="stroke:#8B008B;stroke-width:1.0;"/><polygon fill="#8B008B" points="512.14,2225.25,505.4397,2227.9156,505.3232,2235.1258,512.0235,2232.4602,512.14,2225.25" style="stroke:#8B008B;stroke-width:1.0;"/><polygon fill="#8B008B" points="427.88,2363.63,435.9094,2357.9266,430.429,2359.3285,429.0271,2353.8482,427.88,2363.63" style="stroke:#8B008B;stroke-width:1.0;"/><line style="stroke:#8B008B;stroke-width:1.0;" x1="430.429" x2="434.505" y1="2359.3285" y2="2352.45"/></g><!--link Definitions to Schema--><g id="link_Definitions_Schema"><path codeLine="225" d="M527.5285,1040.4229 C527.5285,1040.4229 525.29,1047.84 525,1051 C518.64,1121.17 507.9,1137.71 503,1208 C489.12,1407.07 476.16,1459.26 503,1657 C525.43,1822.25 584.4,2008.14 621.66,2114.82 " fill="none" id="Definitions-Schema" style="stroke:#B22222;stroke-width:1.0;"/><polygon fill="#B22222" points="526.17,1028.5,522.8749,1034.9143,527.5285,1040.4229,530.8235,1034.0086,526.17,1028.5" style="stroke:#B22222;stroke-width:1.0;"/><polygon fill="#B22222" points="625.92,2126.96,626.705,2117.1425,624.2599,2122.2436,619.1588,2119.7986,625.92,2126.96" style="stroke:#B22222;stroke-width:1.0;"/><line style="stroke:#B22222;stroke-width:1.0;" x1="624.2599" x2="621.61" y1="2122.2436" y2="2114.69"/></g><!--link Parameters Definitions to Parameter--><g id="link_Parameters Definitions_Parameter"><path codeLine="230" d="M1194.6875,1029.3161 C1194.6875,1029.3161 1205.23,1109.67 1173,1148 C1133.85,1194.55 1094.62,1166.66 1050,1208 C1047.33,1210.47 1044.7,1213.01 1042.1,1215.62 " fill="none" id="Parameters Definitions-Parameter" style="stroke:#FF8C00;stroke-width:1.0;"/><polygon fill="#FF8C00" points="1206.51,1027.26,1199.9134,1024.3472,1194.6875,1029.3161,1201.2841,1032.2289,1206.51,1027.26" style="stroke:#FF8C00;stroke-width:1.0;"/><polygon fill="#FF8C00" points="1033.33,1224.84,1042.4317,1221.0772,1036.7766,1221.2177,1036.6361,1215.5626,1033.33,1224.84" style="stroke:#FF8C00;stroke-width:1.0;"/><line style="stroke:#FF8C00;stroke-width:1.0;" x1="1036.7766" x2="1042.29" y1="1221.2177" y2="1215.42"/></g><!--link Responses Definitions to Response--><g id="link_Responses Definitions_Response"><path codeLine="235" d="M1376.7383,1450.1771 C1376.7383,1450.1771 1378.54,1617.42 1364,1657 C1343.18,1713.67 1306.16,1770.22 1273.4,1813.59 " fill="none" id="Responses Definitions-Response" style="stroke:#8FBC8F;stroke-width:1.0;"/><polygon fill="#8FBC8F" points="1387.63,1445.14,1380.5052,1444.028,1376.7383,1450.1771,1383.8632,1451.2891,1387.63,1445.14" style="stroke:#8FBC8F;stroke-width:1.0;"/><polygon fill="#8FBC8F" points="1265.66,1823.69,1274.3122,1818.9848,1268.7038,1819.7232,1267.9654,1814.1148,1265.66,1823.69" style="stroke:#8FBC8F;stroke-width:1.0;"/><line style="stroke:#8FBC8F;stroke-width:1.0;" x1="1268.7038" x2="1273.57" y1="1819.7232" y2="1813.37"/></g><!--link Security Definitions to Security Scheme--><g id="link_Security Definitions_Security Scheme"><path codeLine="240" d="M788.4214,475.0415 C788.4214,475.0415 804.29,544.36 769.35,600.82 " fill="none" id="Security Definitions-Security Scheme" style="stroke:#CD5C5C;stroke-width:1.0;"/><polygon fill="#CD5C5C" points="776.5,473.67,782.0035,478.3295,788.4214,475.0415,782.9178,470.382,776.5,473.67" style="stroke:#CD5C5C;stroke-width:1.0;"/><polygon fill="#CD5C5C" points="762.57,611.54,770.7646,606.0766,765.2451,607.3158,764.0059,601.7964,762.57,611.54" style="stroke:#CD5C5C;stroke-width:1.0;"/><line style="stroke:#CD5C5C;stroke-width:1.0;" x1="765.2451" x2="769.525" y1="607.3158" y2="600.555"/></g><!--link Security Scheme to Scopes--><g id="link_Security Scheme_Scopes"><path codeLine="253" d="M789.0844,783.7221 C789.0844,783.7221 747.95,912.32 715.27,970.45 " fill="none" id="Security Scheme-Scopes" style="stroke:#ADD8E6;stroke-width:1.0;"/><polygon fill="#ADD8E6" points="779.24,776.86,781.8749,783.5725,789.0844,783.7221,786.4496,777.0096,779.24,776.86" style="stroke:#ADD8E6;stroke-width:1.0;"/><polygon fill="#ADD8E6" points="708.97,981.57,716.8883,975.7134,711.4359,977.2204,709.9289,971.7679,708.97,981.57" style="stroke:#ADD8E6;stroke-width:1.0;"/><line style="stroke:#ADD8E6;stroke-width:1.0;" x1="711.4359" x2="715.38" y1="977.2204" y2="970.265"/></g><!--SRC=[xHXBJ-Gs-3w_8c9xgaHxJwLAkx1Ra40WXgwwbqgUv9iP2yS9ZWqphVZl_VoCxKcOi6XlFSMnl_VRhXZf- -9a-Kms6n0dnGT6EPGV7nLfYC3bR_h_brNBwkBVHL7q5gueYrxYyGQtA5-t-7-97_pRjhsCJrUaXriYj_5UNssXWHwtY11aNxJhuQngUQ-c3ZlHrggQEaGk-aHpw_6_XZNbL58aYBldmv-15QG12S8YX9yKIa3VuShmkmlh5AQ7IWagz-S9jwNRdG2EvG-WT_2eg433S8cWacmIDU-9rX5sA2OdxBojzEbdzrlWlzA8H7D2kBztftZyaUyNBmllsxBKdZhv-VJqznFjBFJr9wOWEZSMj036Y0XnrWg-PkqpY0msigx5Y3H5l2-gslQK9CIzbJs7CQiZwXyOQn5US8956_M3nX80_1imb3L27l6E9JFc8AHoqSfRoXz6A6HeaRCGxOfkjX9DHLY4gJreiT1t27GEq6N4OtTQq76FQcmY7gx9Hkyi5fLDMkT5ax7QFLckIYePn7bNGry9sccAyJPoRFgRzHB44wqI14n6IIgTpsTsXNiCOT3-k7TbLxZtX5xCY2OHg0KjIqVDAke8wX0ZDKWRNHRESR1mZeaDHRIlrtt0D-e78faDECPOB9OIBFw5Xb0s9RPdDOXWMMavtiPcZAhFC4ypIhEC-A-ThP-cZ5vAQ7Bp6b9bQU26z3MWBdBEzeGddFsXuUuXChu_2LZ7Mcn0Hy9D1yANcKuTxDZo7s_Lm33DiyssywKotjq2gNE2H5RRWxseUeSA6GfAqGeZ-vYPZDvbYQfOGmMopb2cZ2IWgEDiK5H-BgorobnePwwvuDgEiuNM1fuFF5747SQD87m38T9YWY7I3DMyL6NTRXWLL8Dpo7v65PlR6bilqsMTbRhldZlcHkFeF75a7ggX4r0H2LhQLTio8FnjaqII0y4ZtzryOX8pmo56cMhd3cD9M8DkYZ7Use5zy4rg4oBHgPJ5uaHypIhfW_g1YRN1aNv1-Om85rRZB11qx10zSfg5pgLzbz1Ujw8XoKnEz9JqkUda_Yl1TfFGevZdEX9rllScBnY3IelovO0Epe14CUdiK1GDsT56DVZFLRC2ORAoOggdJt0TpWPU3KvUa_3XB88dkolW6zCCAPUmCIX8PMGNovfsVomkebywxHBimqt5wQC2lpy80Dn853BEgOqse1s3ctMiITPwN6HWE1i_kM2sQnoNqQ-V1AqU4b3Z2pUmcwNDaJkeXn7GxOTmmyEyjXwDX_zz_YDyRaZDSc9S18CZRIKyg4tU-XudQYyNz_UtnHBBdEfnNgzX72gHCN0s5pfDEYtBlYe3SRD0X92pUnqprpLHrG7DAyI75K-FExRzNjYL2IhIe7_iA62MKxeVJya1qd6oe8wPrvHXaxRNc07UI-7xg_bp2FTAFAgMziEuD10SJEEfZZSGYw6rSRXbgKzY-HothnG3MaRDqOiIM0LvCbODHLQkYAJzBZ08D2oNZC1OgxHNOeldxiL7MkGxnxx4zSZztPVlErY305v1hCVoOJ_YhFGYDHWXn9h13m6Nfm7LYcFD8h8LwJn0wXlEzacvsZLwJFdh-keDjd5H6cfw-dfaX2nB96ojXBHrUhGuoKbN5JpCEqrgALjZ3EIFn8N-xpkIFbpWpBocksJcaRXQAPbEEy-2T5qsKOs5Q_fAP2MqBrpZqhdIXEQBCEFS72ap1rDa_iHbsEhNiN6U0IyPE18YiGH7hcvJxsnMYE6nRLmMZvtqc2b9ZhMCYRSw8ubxi9lmWaSqrZR2ZD5A_9AY89jBNbF2utPz26D42O17vg-9GlRwbK0_3YNXhEIs5VGVaqv_fbSJsJv0ljTNUEyrBzDcSP3agKgw9Mem7wjcxIvPfiKD5SmT6Gk4yrTJzkNGaEbTRg3robDRVbD-MVm7]--></g></svg>